<svg xmlns="http://www.w3.org/2000/svg" viewBox="0 0 512 512">
	<g>
		<g>
			<path fill="#24292e" d="M425.199,223.957c-13.303-13.303-34.961-13.303-48.205-0.06l-86.861,85.086V34.133C290.133,15.309,274.824,0,256,0
				s-34.133,15.309-34.133,34.133v274.867l-86.801-85.052c-13.312-13.312-34.961-13.312-48.273,0
				c-13.312,13.312-13.303,34.97,0,48.273c0.017,0.017,0.034,0.026,0.043,0.043l148.361,146.5c5.726,5.658,13.227,8.482,20.727,8.482
				c7.543,0,15.078-2.859,20.787-8.568L425.199,272.23c6.451-6.443,10.001-15.019,10.001-24.132S431.65,230.409,425.199,223.957z"/>
		</g>
	</g>
</svg>
