<svg xmlns="http://www.w3.org/2000/svg" xmlns:xlink="http://www.w3.org/1999/xlink" viewBox="0 0 512 512"><defs><clipPath id="clip-path" transform="translate(-110.39 -77.97)"><circle cx="369.86" cy="369.86" r="369.86" fill="none"/></clipPath></defs><title>Ativo 1</title><g style="isolation:isolate"><g id="Camada_2" data-name="Camada 2"><g id="Layer_3" data-name="Layer 3"><g clip-path="url(#clip-path)"><rect x="144.24" y="1793.94" width="68.73" height="113.58" fill="#FFB0A0"/><path d="M420.06,1183s-64.78,739.61-62.93,761.83c-63,16.67-161.11-22.22-161.11-22.22s53.7-461.1,53.7-529.62,3.71-348.15,3.71-348.15l314.81,16.67s30.71,237.21,30.84,372.12a713.79,713.79,0,0,0,14.55,142.91c32.84,159.72,25,383.11,25,383.11s-90.74,35.18-155.56-11.11c0,0-27.78-375.92-31.48-424.07S432.41,1217.56,420.06,1183Z" transform="translate(-110.39 -77.97)" fill="#712876"/><path d="M311.83,530.71,237.34,576.8,262,1094.1s249.4,54.33,325.94-21C570.69,938.54,559.58,783,559.58,783L549.7,548.4l-88.89-39.09Z" transform="translate(-110.39 -77.97)" fill="#fff"/><polygon points="456 1050.2 433.77 885.38 520.81 850.2 565.25 1027.97 461.55 1072.42 456 1050.2" fill="#010101"/><path d="M579.35,900.39s25.92,46.3,25.92,59.26c44.45,5.56,114.82-46.3,120.37-70.37S644.16,617.06,601.57,572.62C570.09,544.84,542.31,530,542.31,530s3.7-5.56-9.26-13-25.92-25.92-27.78-9.26,1.86,9.26,1.86,35.19,5.55,92.59,14.81,172.22,55.56,163,55.56,163Z" transform="translate(-110.39 -77.97)" fill="#010101"/><path d="M163.84,2021.18a74.08,74.08,0,0,1-28.78,14.58c-5.76,1.42-12.31,4.36-16.65,10.42-9.35,13.06-7.94,36.28-7.94,36.28s64.55,26.92,103,1.13,66.65-40.81,84.61-44A111.42,111.42,0,0,0,329,2029.3s10.3-54.62,4.82-71.77c-12.51-13.67-10.93-.31-10.93-.31s5.23,10.55-8.83,17.52S283.1,1985,278.26,1980s-9.55-11.09-9.55-11.09,8.11-3.35,4.48-9.3-24-18.43-36-10.1-9.1,19.68-9.1,19.68Z" transform="translate(-110.39 -77.97)" fill="#fff"/><path d="M535.54,1976.43s-9.25-13.88,5.15-19.58,48.77-3.42,53.45,3.87c8.21,1.72,11,5.67,19.51,29.79S641,2104.66,638.28,2121s-10.19,34.8-32.08,43.75-51,13.16-57.69,6.88-18.79-14.68-19.91-22.48S518,2076,521.84,2037.09,528.55,1978.16,535.54,1976.43Z" transform="translate(-110.39 -77.97)" fill="#fff"/><path d="M112.57,2061.7c27.73,24.33,67.76,20,98.94,5.53,38.94-18,73.72-51.17,118.74-52.1,2.38-.05,2.39-3.76,0-3.71-40.48.84-73.1,27.26-107.13,45.79-17.4,9.47-36,17.4-56.06,18.18-18.51.71-37.7-3.88-51.87-16.31-1.79-1.56-4.42,1.05-2.62,2.62Z" transform="translate(-110.39 -77.97)" fill="#679fd5"/><path d="M110.84,2070.22c27,23.7,67.27,19.89,97.86,6.15,39.6-17.79,74.47-51.83,120-52.76a1.39,1.39,0,0,0,0-2.78c-40.82.84-73.44,28-107.87,46.45-17.56,9.39-36.22,16.83-56.35,17.31-18.36.45-37.61-4-51.67-16.33-1.34-1.17-3.32.78-2,2Z" transform="translate(-110.39 -77.97)" fill="#679fd5"/><path d="M528.5,2147.07c18.48,12.7,44.24,17.49,65.4,8.69,19.6-8.14,36.19-26.75,45.06-45.72,1-2.14-2.19-4-3.2-1.86-8.41,18-23.87,35.63-42.28,43.74-20.32,9-45.27,4.21-63.11-8.05-2-1.35-3.82,1.86-1.87,3.2Z" transform="translate(-110.39 -77.97)" fill="#679fd5"/><path d="M529.58,2152.45c17.68,12.18,41.49,18,62.39,11.44,20.41-6.36,37.58-24.19,46.5-43.2.5-1.07-1.1-2-1.6-.94-8.72,18.58-25.42,36.13-45.39,42.35-20.46,6.38-43.68.66-61-11.25-1-.67-1.92.93-.94,1.6Z" transform="translate(-110.39 -77.97)" fill="#679fd5"/><path d="M189.78,2066.39c-13.66-23.71,10.17-45.56,28.83-56.3,17.91-10.31,38.16-18.94,48.44-38,1.13-2.1-2.07-4-3.2-1.87-12.71,23.65-40.78,30.26-60.82,45.71-15.51,12-27.33,33.49-16.44,52.38,1.19,2.07,4.39.2,3.19-1.87Z" transform="translate(-110.39 -77.97)" fill="#679fd5"/><path d="M532.91,1983.67c15.51,21,17.5,47.59,18,72.86.12,6.43.58,13.12-.66,19.46-1.54,7.88-6.8,12.06-12.9,16.6-7.06,5.24-14.79,13.13-10.82,22.63.9,2.17,4.49,1.22,3.57-1-5.61-13.44,14.4-19.57,20.3-28.61,6.43-9.85,4.41-23.93,4.07-35.06-.74-24-3.69-48.92-18.33-68.77-1.4-1.9-4.62,0-3.2,1.87Z" transform="translate(-110.39 -77.97)" fill="#679fd5"/><path d="M599.9,1978.34c-16.44,21.66-23.39,49.82-18.21,76.61,4.82,24.9,19.85,47,40.68,61.27,2,1.35,3.82-1.85,1.87-3.2a93.74,93.74,0,0,1-39-59.05c-5-25.86,2-52.91,17.83-73.76,1.44-1.9-1.77-3.75-3.19-1.87Z" transform="translate(-110.39 -77.97)" fill="#679fd5"/><path d="M156.55,2025.7a66.38,66.38,0,0,1,25.22,18.52c1.13,1.32,3,.15,3.16-1.31a40.4,40.4,0,0,0-11.74-31.76l-1.8,3.09c9.27,3.31,17.81,8.32,27.08,11.62,1.6.57,2.82-1.39,2.1-2.72-3.76-6.88-7.86-13.56-11.61-20.44l-2.09,2.72,27.32,9.86a1.87,1.87,0,0,0,2.28-1.29,19.71,19.71,0,0,0-11.14-23.07c-.47,1.13-1,2.26-1.43,3.39l29,11.69c1.31.53,2.68-1,2.27-2.28a38.2,38.2,0,0,0-17-21.37l-1.42,3.39,25.34,9.87c1.87.73,2.9-1.84,1.8-3.09q-9.45-10.76-18.92-21.49l-1.8,3.1,29.16,11.61c2,.81,3.11-2.3,1.43-3.38l-25.93-16.67-1.87,3.2a79.72,79.72,0,0,0,37.36,12.28c2.38.18,2.37-3.53,0-3.7a75.65,75.65,0,0,1-35.49-11.78c-2-1.28-3.86,1.91-1.87,3.2l25.93,16.67c.47-1.13.95-2.26,1.43-3.39l-29.16-11.61c-1.87-.75-2.9,1.85-1.8,3.09l18.91,21.48L243,1992l-25.34-9.87c-2-.78-3.18,2.34-1.43,3.38a34.17,34.17,0,0,1,15.33,19.16l2.28-2.28-29-11.7c-1.93-.77-3.35,2.55-1.43,3.39a16,16,0,0,1,9.43,18.88l2.28-1.29-27.32-9.86c-1.59-.58-2.81,1.4-2.09,2.72,3.75,6.88,7.85,13.56,11.61,20.44.69-.91,1.39-1.81,2.09-2.72-9.27-3.3-17.82-8.31-27.09-11.62-1.8-.64-3,1.85-1.8,3.1a36.72,36.72,0,0,1,10.66,29.14l3.16-1.31a70.25,70.25,0,0,0-26.86-19.48c-2.2-.91-3.15,2.67-1,3.58Z" transform="translate(-110.39 -77.97)" fill="#010101"/><path d="M603.42,1986.53a250.66,250.66,0,0,0,8.68,110.76c.35,1.14,2.14.65,1.78-.49A248.81,248.81,0,0,1,605.2,1987c.17-1.17-1.61-1.67-1.78-.49Z" transform="translate(-110.39 -77.97)" fill="#679fd5"/><path d="M530.67,1995.21a282.37,282.37,0,0,1,4.14,99.92c-.17,1.16,1.62,1.67,1.78.49a284.82,284.82,0,0,0-4.14-100.9c-.25-1.16-2-.67-1.78.49Z" transform="translate(-110.39 -77.97)" fill="#679fd5"/><path d="M184.63,2057.67A213.39,213.39,0,0,1,289.71,1986c1.14-.34.65-2.13-.49-1.78a215,215,0,0,0-105.9,72.11c-.73.92.57,2.24,1.31,1.3Z" transform="translate(-110.39 -77.97)" fill="#679fd5"/><path d="M589.21,1999.69A127.28,127.28,0,0,0,537,2015c-1.52.83-.94,3.67.93,3.45a110.65,110.65,0,0,1,47.33,4.61v-3.57c-14.76,6.22-28.89,13.81-43.65,20a1.86,1.86,0,0,0,.5,3.64c15.46,1.88,30.87,4.15,46.32,6-.16-1.21-.32-2.42-.49-3.64l-45.62,15.32a1.85,1.85,0,0,0,1,3.57,98.16,98.16,0,0,1,51.77,2.81c.16-1.21.33-2.43.49-3.64a101,101,0,0,0-56,15.68,1.86,1.86,0,0,0,1.43,3.39,176.65,176.65,0,0,1,63.06-5.16c2.37.23,2.36-3.47,0-3.7a179.43,179.43,0,0,0-64,5.29l1.43,3.38a97.45,97.45,0,0,1,54.14-15.18c2.15,0,2.43-3,.49-3.63a101.87,101.87,0,0,0-53.73-2.81c.33,1.19.66,2.38,1,3.57l45.63-15.31a1.86,1.86,0,0,0-.5-3.64c-15.45-1.88-30.86-4.15-46.32-6,.16,1.21.32,2.42.49,3.63,14.76-6.22,28.89-13.8,43.65-20,1.63-.69,1.87-3,0-3.57a113.35,113.35,0,0,0-48.32-4.75c.32,1.15.63,2.3.94,3.45a122.77,122.77,0,0,1,50.36-14.74c2.36-.17,2.38-3.88,0-3.71Z" transform="translate(-110.39 -77.97)" fill="#010101"/><path d="M542.31,530S484.9,696.69,464.53,743s-196.32,343.7-196.32,343.7-25.9,4.44-25.9,10S208.4,1357,201.54,1412.22l53.51,7.65,26.15-310.22S475.64,806,490.46,770.76,571.94,543,571.94,543Z" transform="translate(-110.39 -77.97)" fill="#363636"/><rect x="351.08" y="732.55" width="239.63" height="316.66" transform="translate(-367 115.67) rotate(-18.36)" fill="#679fd5"/><path d="M450.52,927.34l143.62-53.06s36.11,27.45,19,57.68c-54.08,20-134.16,44.81-154.77,51.14a45.49,45.49,0,0,0-9.15,3.95c-12.21,6.93-48.91,26.75-78.5,32.16a9.48,9.48,0,0,1-10.11-4.88,10.32,10.32,0,0,1,0-9.87c-5.87-10.37-6.87-16.65-2.8-19.22-10.14-4.65-7.87-19.23-6.29-21.91,0,0-9-5.4-8.35-14.83a8.45,8.45,0,0,1,4.28-6.67c14.37-8.14,36.69-15.24,36.69-15.24s11.1-6.42,5-15.77c-5.89-8.93-32.54-37-10.24-59.14a2.88,2.88,0,0,1,4.76,1.21l5,15.91A33.67,33.67,0,0,0,398.48,884l18.36,16.13a37.57,37.57,0,0,1,6.27,7.11l9.86,14.5A15,15,0,0,0,450.52,927.34Z" transform="translate(-110.39 -77.97)" fill="#FFB0A0"/><path d="M387,865.52c-2.48,2.16-6.18.76-7.9-1.67-1.86-2.63-1.95-6.06-2.05-9.16,0-.56-.9-.57-.88,0,.13,3.87.34,8.58,3.65,11.2,2.28,1.81,5.52,2.24,7.8.24.43-.37-.2-1-.62-.61Z" transform="translate(-110.39 -77.97)" fill="#ba6d4a"/><path d="M396.46,896.8a20.94,20.94,0,0,0,6.59-5.94c.33-.46-.43-.9-.76-.44A20,20,0,0,1,396,896a.44.44,0,0,0,.44.76Z" transform="translate(-110.39 -77.97)" fill="#ba6d4a"/><path d="M399.26,888.42a7,7,0,0,1-5.08,3.55c-.55.09-.32.93.24.85a7.8,7.8,0,0,0,5.6-4c.27-.5-.49-.94-.76-.44Z" transform="translate(-110.39 -77.97)" fill="#ba6d4a"/><path d="M596,857.8,450.52,927.34S446,980,475.64,983.72s174.08-35.18,174.08-35.18L659,870.76Z" transform="translate(-110.39 -77.97)" fill="#010101"/><path d="M500.67,817.2A428.31,428.31,0,0,1,407.35,848c-2.47.51-1.42,4.29,1,3.77a431.78,431.78,0,0,0,94.26-31.22c2.28-1.06.3-4.44-2-3.38Z" transform="translate(-110.39 -77.97)" fill="#010101"/><path d="M490.22,797.61a428.29,428.29,0,0,1-93.32,30.82c-2.47.51-1.42,4.29,1,3.78A432.32,432.32,0,0,0,492.2,801c2.28-1.06.3-4.44-2-3.38Z" transform="translate(-110.39 -77.97)" fill="#010101"/><path d="M507.2,839.4a427.78,427.78,0,0,1-93.32,30.83c-2.47.51-1.42,4.29,1,3.78a432.32,432.32,0,0,0,94.26-31.22c2.29-1.06.3-4.44-2-3.39Z" transform="translate(-110.39 -77.97)" fill="#010101"/><path d="M207.9,1332.78s8.36,8.16,13.9,8.64a3,3,0,0,0,3.11-3.8,25.59,25.59,0,0,0-4.57-9.3,3.7,3.7,0,0,0,3.55-1.9c1-1.82-17.12-25.25-23.39-33.24a9.11,9.11,0,0,1-1.91-6l1.56-31.29-12.46-2.11-4,48.07Z" transform="translate(-110.39 -77.97)" fill="#712876"/><path d="M218.23,1111l-14.15,82.25a31.44,31.44,0,0,0,2.35,17.52l15.2,34.22a17.94,17.94,0,0,1,.88,10.12l-4.57,22.39a39,39,0,0,0-.71,10.17l1.08,17.45a2.91,2.91,0,0,1-3.25,3.07c-4.83-.6-13-3.92-12.63-19.54.55-22.1,1-18.26,1-18.26l-6.38-8.86-4.44,40.93s26.38,39,20.8,53.11a2.51,2.51,0,0,1-4.26.7c-21.22-25.39-30.65-40.64-33.45-45.5a16.08,16.08,0,0,1-1.43-3.33L157.64,1252a25.44,25.44,0,0,1-.84-10.76l19.88-137.12S201.45,1095.15,218.23,1111Z" transform="translate(-110.39 -77.97)" fill="#FFB0A0"/><path d="M217.86,1295c-.76-2.39-3.44-1.17-4.19.63s-.36,3.87-.27,5.64a21.93,21.93,0,0,0,1.35,7c.16.41.84.23.68-.19a20.5,20.5,0,0,1-1.31-6.4c-.05-.91-.08-1.81-.1-2.71q0-.59,0-1.17c-.19-1.81.87-2.69,3.19-2.66.14.43.82.25.68-.18Z" transform="translate(-110.39 -77.97)" fill="#712876"/><path d="M205.49,1350.85c2.52-2.8,6.21,2.43,7.38,4.23.24.38.85,0,.6-.35-1.44-2.23-5.52-7.67-8.48-4.37-.3.33.2.83.5.49Z" transform="translate(-110.39 -77.97)" fill="#ba6d4a"/><path d="M175.6,1309.51a7.21,7.21,0,0,1,5.56-2.65.35.35,0,0,0,0-.7,7.84,7.84,0,0,0-6,2.86c-.29.34.2.84.49.49Z" transform="translate(-110.39 -77.97)" fill="#712876"/><path d="M180.9,1308.8a7.13,7.13,0,0,1-2.68,1.09c-.45.08-.26.76.18.68a7.73,7.73,0,0,0,2.85-1.16c.38-.25,0-.86-.35-.61Z" transform="translate(-110.39 -77.97)" fill="#712876"/><path d="M214.23,1280a3.57,3.57,0,0,0,2.23.56c.45,0,.45-.74,0-.71a2.9,2.9,0,0,1-1.88-.46c-.38-.24-.73.36-.35.61Z" transform="translate(-110.39 -77.97)" fill="#712876"/><path d="M212.82,1277.65a8.56,8.56,0,0,1,4.34.52c.42.17.61-.51.19-.67a9.15,9.15,0,0,0-4.72-.53c-.44.07-.25.74.19.68Z" transform="translate(-110.39 -77.97)" fill="#712876"/><path d="M266.39,535.58s53.7,448.14,35.18,635.18c-20.37,5.55-90.74-5.56-90.74-5.56v29.63l-53.7-3.7s-25.93-153.7-18.52-272.22,13-257.4,27.78-279.63,37-50,44.44-55.55,20.37-9.26,25.93-16.67S238.61,530,266.39,535.58Z" transform="translate(-110.39 -77.97)" fill="#010101"/><path d="M331.58,424.53s3.3,65,3.3,73.25-23.05,32.93-23.05,32.93,14.82,56.79,75.72,47.74,73.26-69.14,73.26-69.14-34.57-4.94-39.51-23.87-7.41-74.08-7.41-74.08Z" transform="translate(-110.39 -77.97)" fill="#FFB0A0"/><path d="M332,427.82l.2,4.74h0c.42,4.63.35,6.17,4.12,10.08,5.55,5.76,40.78,10.63,59.05.62,8.28-4.54,16.83-8.45,19.55-17.5h0l-1-14.4Z" transform="translate(-110.39 -77.97)" fill="#712876"/><path d="M285.08,300.62s-15.64-7.41-24.69-1.24-11.94,11.12-10.29,24.28,10.7,46.92,42.8,45.27S285.08,300.62,285.08,300.62Z" transform="translate(-110.39 -77.97)" fill="#FFB0A0"/><path d="M439.82,370.58c2.47-1.23,26.34-7.41,29.63-14.82s7-39.91,9.46-45.26-5.76-29.22-32.51-17.29S439.82,370.58,439.82,370.58Z" transform="translate(-110.39 -77.97)" fill="#FFB0A0"/><path d="M367.29,441h0c-37.86,0-58.34-21.81-73.77-58.79-5.73-13.73-11.73-44.86-11.73-59.73l3.08-59.57a82.66,82.66,0,0,1,82.42-82.41h0a82.65,82.65,0,0,1,82.41,82.41v95.68C441.47,406,411.83,434,367.29,441Z" transform="translate(-110.39 -77.97)" fill="#FFB0A0"/><path d="M404.59,319.64h0a9,9,0,0,1-6.38-10.94l.47-1.79a9,9,0,0,1,10.94-6.38h0A9,9,0,0,1,416,311.47l-.47,1.79A9,9,0,0,1,404.59,319.64Z" transform="translate(-110.39 -77.97)" fill="#363636"/><path d="M333.48,320.46h0a9,9,0,0,0,6.38-10.94l-.47-1.79a9,9,0,0,0-10.94-6.37h0a9,9,0,0,0-6.37,10.93l.47,1.79A9,9,0,0,0,333.48,320.46Z" transform="translate(-110.39 -77.97)" fill="#363636"/><path d="M398.62,258a3,3,0,0,0,1,3.55c2.71,2.07,9.34,7.12,21.94,16.67a189.88,189.88,0,0,1,16.06,13.34,1.27,1.27,0,0,0,2.06-1.4c-2.5-5-6.35-11.54-11.22-16.56C420.18,265.05,401.93,250.33,398.62,258Z" transform="translate(-110.39 -77.97)" fill="#363636"/><path d="M338.74,264.49c-3,2.3-9.63,6.52-23.76,12.81a73.85,73.85,0,0,0-15,12c-.86.87-2.39,0-1.89-1.15,1.65-3.63,5.72-9.57,15.66-18,13.11-11.07,20.47-12.63,24.34-10.84A3,3,0,0,1,338.74,264.49Z" transform="translate(-110.39 -77.97)" fill="#363636"/><path d="M325,194.44s-24.28,26.75-32.51,57.21-8.64,76.54-8.64,76.54-7,7.82-15.23-17.28-8.23-44.45-15.64-56-7.82-18.93-4.11-33.34,5.76-25.92,48.15-31.27,95.06-23.87,95.06-23.87,93.83,32.92,95.07,42-12.76,54.74-14.82,65-4.94,20.57-9.47,29.22-11.52,17.69-11.93,10.7-5.76-58-9.88-68.73-2.47-18.52-5.35-26.75S417.6,201,411.83,200.61,343.11,179.63,325,194.44Z" transform="translate(-110.39 -77.97)" fill="#363636"/><path d="M319.24,147.94s-6.59-36.22,29.63-52.68c10.7-18.93,48.56-18.93,53.5-15.64s30.45,18.93,30.45,18.93,22.23-23.87,43.63-9,21.4,21.4,21.4,21.4,18.93,23.87,22.22,42c8.23,19.75-1.65,34.57-1.65,34.57s45.27,42.8,3.29,68.31-35.39-14-35.39-14S485.5,273.87,474,264s-12.35-46.09-17.29-51.85-16.46-7.41-31.28-.83-21.4,17.29-64.19-8.23c-18.11-14-27.17-11.52-27.17-11.52s-29.63,8.23-37-1.23S291.25,152.88,319.24,147.94Z" transform="translate(-110.39 -77.97)" fill="#363636"/><path d="M333.27,379a46.56,46.56,0,0,0,77.24,2.89c1.77-2.4-2.24-4.71-4-2.34-17.64,23.88-53.64,22.19-69.25-2.89-1.57-2.52-5.57-.2-4,2.34Z" transform="translate(-110.39 -77.97)" fill="#712876"/><g style="mix-blend-mode:multiply"><path d="M356.72,362.05c4.88,4.6,10.25,9.42,17.28,9.91,7.84.55,11.74-6.6,18.93-7.32,2.93-.29,3.71-2.81.75-2.51-4.74.47-8.48,1-12.48,3.3-8.2,4.78-13.76,1.48-21.79-4.69-2.36-1.81-4.86-.74-2.69,1.31Z" transform="translate(-110.39 -77.97)" fill="#712876"/></g><path d="M454.22,322.06s9.47-.83,11.11,5.76-7.81,27.57-12.75,21,2.05-10.7,3.29-12.76S448.87,326.17,454.22,322.06Z" transform="translate(-110.39 -77.97)" fill="#712876"/><path d="M276.12,324.94s-9.47-.83-11.11,5.76,7.82,27.57,12.76,21-2.06-10.7-3.3-12.76S281.47,329.05,276.12,324.94Z" transform="translate(-110.39 -77.97)" fill="#712876"/><path d="M214.41,1163.23q11.16-139.71,17.26-279.78,1.74-39.74,3.05-79.51c.08-2.38-3.63-2.38-3.71,0q-4.65,140.09-14.37,280-2.76,39.69-5.93,79.34c-.19,2.38,3.51,2.37,3.7,0Z" transform="translate(-110.39 -77.97)" fill="#363636"/><path d="M591,863.26,630.52,846c2.18-1,.3-4.15-1.87-3.2l-39.52,17.25c-2.18.95-.29,4.14,1.87,3.19Z" transform="translate(-110.39 -77.97)" fill="#363636"/><path d="M246.19,568.28q24.66,134.55,38.21,270.81,3.81,38.61,6.73,77.31c.18,2.37,3.89,2.39,3.71,0Q284.52,780.13,263.07,645q-6.18-38.93-13.31-77.69c-.43-2.34-4-1.35-3.57,1Z" transform="translate(-110.39 -77.97)" fill="#595357"/><path d="M520.5,514.53a183.43,183.43,0,0,0-2.18,46.21c.19,2.36,3.9,2.38,3.71,0a179.42,179.42,0,0,1,2-45.23c.4-2.33-3.17-3.33-3.57-1Z" transform="translate(-110.39 -77.97)" fill="#595357"/><path d="M565.16,717.66q21.3,67,42.58,133.93c.72,2.26,4.3,1.29,3.58-1q-21.3-67-42.59-133.93c-.72-2.26-4.29-1.29-3.57,1Z" transform="translate(-110.39 -77.97)" fill="#363636"/><path d="M334.42,171c15.88,4.42,30.24-3.8,43.66-11.35,15.2-8.55,36.77-16.36,47.84,2.51,3.56,6.08,5.94,12.83,10.85,18,4.76,5.06,11.1,8.25,17.5,10.73,14.59,5.65,44.28,11.62,38.37,33.84-.77,2.88,3.69,4.11,4.46,1.23,4.43-16.62-10.19-28.24-24-33.51-8.64-3.3-17.92-5.2-25.93-10-9.19-5.49-12.11-14-17.25-22.69-8.08-13.66-23.19-16.71-37.72-12-18.69,6.11-35.41,24.55-56.55,18.66-2.87-.8-4.1,3.67-1.23,4.47Z" transform="translate(-110.39 -77.97)" fill="#010101"/><path d="M436.2,116.77a27.64,27.64,0,0,1,21.05,3.93c7.8,5.09,10.61,12.54,12.68,21.26,2.51,10.53,8.76,24.56,22.2,20.5,2.84-.85,1.63-5.32-1.23-4.46-11.24,3.39-14.81-10.38-16.76-18.39-1.61-6.59-3.59-12.54-8.24-17.62A32.71,32.71,0,0,0,435,112.3c-2.91.63-1.68,5.09,1.23,4.47Z" transform="translate(-110.39 -77.97)" fill="#010101"/><path d="M340.82,147.87c3.23-15.6,14.37-29.09,29.59-34.32,4.15-1.42,8.66-2.38,13-1.58,5.31,1,8.19,4.45,11.72,8.09,4.41,4.56,9.81,8,16.29,6,2.82-.91,1.61-5.38-1.23-4.46-9.34,3-15.47-11.42-24-13.78-7.46-2.07-15.71.3-22.46,3.53a50.8,50.8,0,0,0-27.42,35.34c-.61,2.91,3.86,4.15,4.46,1.23Z" transform="translate(-110.39 -77.97)" fill="#010101"/><path d="M388.2,190.06c7.95-4.07,15.34,4.49,22.79,6.15a13.11,13.11,0,0,0,12.26-3.09c2.18-2-1.1-5.31-3.27-3.27-6.21,5.82-14.43-1.52-20.43-3.94-4.65-1.88-9.18-2.16-13.69.15-2.65,1.36-.31,5.35,2.34,4Z" transform="translate(-110.39 -77.97)" fill="#010101"/></g></g></g></g></svg>
