<?xml version="1.0" encoding="utf-8"?>
<!-- Generator: Adobe Illustrator 23.0.0, SVG Export Plug-In . SVG Version: 6.00 Build 0)  -->
<svg version="1.1" xmlns="http://www.w3.org/2000/svg" xmlns:xlink="http://www.w3.org/1999/xlink" x="0px" y="0px"
	 viewBox="0 0 750 500" style="enable-background:new 0 0 750 500;" xml:space="preserve">
<style type="text/css">
	.st0{fill:#F9D8AD;}
	.st1{fill:#F8EFEA;}
	.st2{fill:#F73C4F;}
	.st3{fill:#BA2F42;}
	.st4{fill:none;stroke:#BA2F42;stroke-width:1.5;stroke-linecap:round;stroke-linejoin:round;stroke-miterlimit:10;}
	.st5{fill:#FFA297;}
	.st6{fill:#FFD774;}
	.st7{fill:#E4911F;}
	.st8{fill:#FAAB44;}
	.st9{fill:#641216;}
	.st10{fill:#F55C2B;}
	.st11{fill:#69A4C2;}
	.st12{fill:#FFFFFF;}
	.st13{fill:none;stroke:#F55C2B;stroke-width:1.5;stroke-linecap:round;stroke-linejoin:round;stroke-miterlimit:10;}
	.st14{fill:none;}
	.st15{fill:none;stroke:#376F92;stroke-width:1.5;stroke-linecap:round;stroke-linejoin:round;stroke-miterlimit:10;}
	.st16{fill:none;stroke:#FFFFFF;stroke-width:1.5;stroke-miterlimit:10;}
	.st17{opacity:0.5;fill:#FFFFFF;}
	.st18{fill:#2A878E;}
	.st19{fill:#20707B;}
	.st20{fill:none;stroke:#89C4C0;stroke-width:1.5;stroke-linecap:round;stroke-linejoin:round;stroke-miterlimit:10;}
	.st21{fill:none;stroke:#E4911F;stroke-width:1.5;stroke-linecap:round;stroke-linejoin:round;stroke-miterlimit:10;}
	.st22{fill:none;stroke:#063D51;stroke-width:1.5;stroke-linecap:round;stroke-linejoin:round;stroke-miterlimit:10;}
	.st23{fill:none;stroke:#440A10;stroke-width:1.5;stroke-linecap:round;stroke-linejoin:round;stroke-miterlimit:10;}
	.st24{fill:#376F92;}
	.st25{fill:#063D51;}
	.st26{fill:none;stroke:#2A878E;stroke-width:1.5;stroke-linecap:round;stroke-linejoin:round;stroke-miterlimit:10;}
	.st27{fill:#89C4C0;}
</style>
<g id="BACKGROUND">
</g>
<g id="OBJECTS">
	<circle class="st0" cx="375" cy="250" r="202"/>
	<g>
		<path class="st0" d="M686.5,113.5c0.1,2.4,1.8,4.5,4.2,5.1c2.9,0.7,5.9-1.2,6.5-4.1c0.7-2.9-1.2-5.9-4.1-6.5
			c-2.5-0.6-4.9,0.6-6,2.8l-2.9-0.7c0.6-3.9,0-7.9-2-11.6l6.7-4.2c0.7,0.6,1.5,1.1,2.5,1.3c1.4,0.3,2.9,0.1,4.1-0.7
			c1.2-0.8,2.1-2,2.4-3.4c0.3-1.4,0.1-2.9-0.7-4.1c-0.8-1.2-2-2.1-3.4-2.4c-1.4-0.3-2.9-0.1-4.1,0.7c-1.2,0.8-2.1,2-2.4,3.4
			c-0.2,0.9-0.2,1.9,0.1,2.8l-6.7,4.2c-2.5-3.3-5.9-5.7-9.6-6.8l0.7-2.9c2.4-0.1,4.5-1.8,5.1-4.2c0.7-2.9-1.2-5.9-4.1-6.5
			c-2.9-0.7-5.9,1.2-6.5,4.1c-0.6,2.5,0.6,4.9,2.8,6l-0.7,2.9c-3.8-0.6-7.7,0-11.3,1.8l-4.1-6.5c1.6-1.8,2-4.5,0.6-6.6
			c-1.6-2.6-5-3.3-7.5-1.7c-2.5,1.6-3.3,5-1.7,7.5c0,0,0,0,0,0c0.8,1.3,2,2.1,3.4,2.4c0.9,0.2,1.9,0.2,2.8-0.1l4.1,6.5
			c-3.5,2.5-5.9,5.9-7.1,9.8l-2.9-0.7c-0.1-2.4-1.8-4.5-4.2-5.1c-2.9-0.7-5.9,1.2-6.5,4.1c-0.7,2.9,1.2,5.9,4.1,6.5
			c2.5,0.6,4.9-0.6,6-2.8l2.9,0.7c-0.6,3.9,0,7.9,2,11.6l-6.2,3.9c-1.8-1.6-4.5-2-6.6-0.6c-2.5,1.6-3.3,5-1.7,7.5
			c0.8,1.3,2,2.1,3.4,2.4c1.4,0.3,2.8,0.1,4.1-0.7c0,0,0,0,0,0c2.1-1.3,3-3.9,2.3-6.2l6.2-3.9c2.5,3.3,5.9,5.7,9.6,6.8l-0.7,2.9
			c-2.4,0.1-4.5,1.8-5.1,4.2c-0.7,2.9,1.2,5.9,4.1,6.5c2.9,0.7,5.9-1.2,6.5-4.1c0.6-2.5-0.6-4.9-2.8-6l0.7-2.9
			c4,0.6,8.1-0.1,11.9-2.1l4.1,6.5c-0.6,0.7-1.1,1.5-1.3,2.5c-0.3,1.4-0.1,2.9,0.7,4.1c0.8,1.2,2,2.1,3.4,2.4
			c1.4,0.3,2.9,0.1,4.1-0.7c1.2-0.8,2.1-2,2.4-3.4c0.3-1.4,0.1-2.9-0.7-4.1c-0.8-1.2-2-2.1-3.4-2.4c-0.9-0.2-1.9-0.2-2.8,0.1
			l-4.1-6.5c3.2-2.5,5.4-5.8,6.6-9.4L686.5,113.5z M661.5,97c0.4-1.9,2.3-3,4.2-2.6c1.9,0.4,3,2.3,2.6,4.2c-0.4,1.9-2.3,3-4.2,2.6
			C662.3,100.8,661.1,98.9,661.5,97z M665,108.9c-1.3-0.3-2.1-1.6-1.8-2.9c0.3-1.3,1.6-2.1,2.9-1.8c1.3,0.3,2.1,1.6,1.8,2.9
			C667.6,108.4,666.3,109.2,665,108.9z M672.8,107.4c-1.5-0.3-2.4-1.8-2.1-3.3c0.3-1.5,1.8-2.4,3.3-2.1c1.5,0.3,2.4,1.8,2.1,3.3
			C675.7,106.8,674.3,107.7,672.8,107.4z"/>
		<path class="st0" d="M92.3,113.6c1.3,2,3.8,3.1,6.2,2.3c2.9-0.9,4.5-3.9,3.6-6.8c-0.9-2.9-3.9-4.5-6.8-3.6c-2.4,0.7-3.9,3-3.9,5.4
			l-2.9,0.9c-1.4-3.7-4-6.9-7.5-9.1l3.7-7c0.9,0.2,1.9,0.2,2.8-0.1c1.4-0.4,2.5-1.4,3.2-2.7c0.7-1.3,0.8-2.8,0.4-4.2
			c-0.4-1.4-1.4-2.5-2.7-3.2c-1.3-0.7-2.8-0.8-4.2-0.4c-1.4,0.4-2.5,1.4-3.2,2.7c-0.7,1.3-0.8,2.8-0.4,4.2c0.3,0.9,0.8,1.7,1.5,2.4
			l-3.7,7c-3.8-1.7-7.9-2-11.7-1.1L66,97.3c2-1.3,3.1-3.8,2.3-6.2c-0.9-2.9-3.9-4.5-6.8-3.6c-2.9,0.9-4.5,3.9-3.6,6.8
			c0.7,2.4,3,3.9,5.4,3.9l0.9,2.9c-3.6,1.4-6.7,3.8-8.9,7.2l-6.8-3.6c0.5-2.3-0.5-4.8-2.7-6c-2.7-1.4-6-0.4-7.4,2.3
			c-1.4,2.7-0.4,6,2.3,7.4c0,0,0,0,0,0c1.3,0.7,2.8,0.8,4.2,0.4c0.9-0.3,1.7-0.8,2.4-1.5l6.7,3.6c-1.8,3.9-2.2,8.1-1.3,12l-2.9,0.9
			c-1.3-2-3.8-3.1-6.2-2.3c-2.9,0.9-4.5,3.9-3.6,6.8c0.9,2.9,3.9,4.5,6.8,3.6c2.4-0.7,3.9-3,3.9-5.4l2.9-0.9c1.4,3.7,4,6.9,7.5,9.1
			l-3.4,6.5c-2.3-0.5-4.8,0.5-6,2.7c-1.4,2.7-0.4,6,2.3,7.4c1.3,0.7,2.8,0.8,4.2,0.4c1.3-0.4,2.5-1.3,3.2-2.7c0,0,0,0,0,0
			c1.2-2.2,0.7-4.9-1.1-6.5l3.4-6.5c3.8,1.7,7.9,2,11.7,1.1l0.9,2.9c-2,1.3-3.1,3.8-2.3,6.2c0.9,2.9,3.9,4.5,6.8,3.6
			c2.9-0.9,4.5-3.9,3.6-6.8c-0.7-2.4-3-3.9-5.4-3.9l-0.9-2.9c3.7-1.5,7-4.1,9.3-7.8l6.7,3.6c-0.2,0.9-0.2,1.9,0.1,2.8
			c0.4,1.4,1.4,2.5,2.7,3.2c1.3,0.7,2.8,0.8,4.2,0.4c1.4-0.4,2.5-1.4,3.2-2.7c0.7-1.3,0.8-2.8,0.4-4.2c-0.4-1.4-1.4-2.5-2.7-3.2
			c-1.3-0.7-2.8-0.8-4.2-0.4c-0.9,0.3-1.7,0.8-2.4,1.5l-6.8-3.6c1.6-3.7,1.8-7.7,1-11.4L92.3,113.6z M62.5,111.8
			c-0.6-1.8,0.5-3.8,2.3-4.3c1.8-0.6,3.8,0.5,4.3,2.3c0.6,1.8-0.5,3.8-2.3,4.3C65,114.7,63,113.6,62.5,111.8z M71.4,120.3
			c-1.3,0.4-2.6-0.3-3-1.6c-0.4-1.3,0.3-2.6,1.6-3c1.3-0.4,2.6,0.3,3,1.6C73.4,118.6,72.7,120,71.4,120.3z M77.4,115.2
			c-1.4,0.4-3-0.4-3.4-1.8c-0.4-1.4,0.4-3,1.8-3.4c1.4-0.4,3,0.4,3.4,1.8C79.7,113.2,78.8,114.7,77.4,115.2z"/>
		<path class="st0" d="M84.3,430c0.5,1.6,1.9,2.8,3.7,2.7c2.1,0,3.7-1.7,3.7-3.8c0-2.1-1.7-3.7-3.8-3.7c-1.7,0-3.2,1.2-3.6,2.8
			l-2.1,0c-0.2-2.7-1.3-5.3-3.2-7.5l3.8-3.9c0.6,0.3,1.2,0.5,1.9,0.5c1,0,1.9-0.4,2.6-1.1c0.7-0.7,1.1-1.7,1.1-2.7
			c0-1-0.4-1.9-1.1-2.6c-0.7-0.7-1.7-1.1-2.7-1.1c-1,0-1.9,0.4-2.6,1.1c-0.7,0.7-1.1,1.7-1.1,2.7c0,0.7,0.2,1.3,0.5,1.9l-3.8,3.9
			c-2.2-1.8-4.8-2.8-7.5-3l0-2.1c1.6-0.5,2.8-1.9,2.7-3.7c0-2.1-1.7-3.7-3.8-3.7c-2.1,0-3.7,1.7-3.7,3.8c0,1.7,1.2,3.2,2.8,3.6
			l0,2.1c-2.6,0.2-5.2,1.3-7.3,3.1l-3.8-3.7c0.8-1.4,0.6-3.3-0.6-4.5c-1.5-1.4-3.9-1.4-5.3,0.1c-1.4,1.5-1.4,3.9,0.1,5.3
			c0,0,0,0,0,0c0.7,0.7,1.7,1.1,2.7,1.1c0.6,0,1.3-0.2,1.9-0.5l3.8,3.7c-1.9,2.2-3,4.9-3.2,7.7l-2.1,0c-0.5-1.6-1.9-2.8-3.7-2.7
			c-2.1,0-3.7,1.7-3.7,3.8c0,2.1,1.7,3.7,3.8,3.7c1.7,0,3.2-1.2,3.6-2.8l2.1,0c0.2,2.7,1.3,5.3,3.2,7.5l-3.5,3.6
			c-1.4-0.8-3.3-0.6-4.5,0.6c-1.4,1.5-1.4,3.9,0.1,5.3c0.7,0.7,1.7,1.1,2.7,1.1c1,0,1.9-0.4,2.6-1.1c0,0,0,0,0,0
			c1.2-1.2,1.4-3.1,0.5-4.5l3.5-3.6c2.2,1.8,4.8,2.8,7.5,3l0,2.1c-1.6,0.5-2.8,1.9-2.7,3.7c0,2.1,1.7,3.7,3.8,3.7s3.7-1.7,3.7-3.8
			c0-1.7-1.2-3.2-2.8-3.6l0-2.1c2.8-0.2,5.4-1.4,7.6-3.4l3.8,3.7c-0.3,0.6-0.5,1.2-0.5,1.9c0,1,0.4,1.9,1.1,2.6
			c0.7,0.7,1.7,1.1,2.7,1.1c1,0,1.9-0.4,2.6-1.1c0.7-0.7,1.1-1.7,1.1-2.7c0-1-0.4-1.9-1.1-2.6c-0.7-0.7-1.7-1.1-2.7-1.1
			c-0.7,0-1.3,0.2-1.9,0.5l-3.8-3.7c1.8-2.2,2.7-4.7,2.9-7.4L84.3,430z M64.9,423.1c0-1.3,1-2.4,2.4-2.4c1.3,0,2.4,1,2.4,2.4
			c0,1.3-1,2.4-2.4,2.4S64.9,424.4,64.9,423.1z M69.1,430.5c-0.9,0-1.7-0.7-1.7-1.6c0-0.9,0.7-1.7,1.6-1.7c0.9,0,1.7,0.7,1.7,1.6
			C70.8,429.7,70,430.5,69.1,430.5z M74.1,428.2c-1,0-1.9-0.8-1.9-1.9c0-1,0.8-1.9,1.9-1.9c1,0,1.9,0.8,1.9,1.9
			C76,427.4,75.1,428.2,74.1,428.2z"/>
		<path class="st0" d="M584.8,61.1c0.6,2,2.4,3.4,4.5,3.4c2.5,0,4.6-2.1,4.6-4.7c0-2.5-2.1-4.6-4.7-4.6c-2.1,0-3.9,1.5-4.4,3.5
			l-2.5,0c-0.3-3.3-1.6-6.5-3.9-9.2l4.7-4.8c0.7,0.4,1.5,0.6,2.3,0.6c1.2,0,2.4-0.5,3.2-1.4c0.9-0.9,1.3-2.1,1.3-3.3
			c0-1.2-0.5-2.4-1.4-3.2c-0.9-0.9-2.1-1.3-3.3-1.3c-1.2,0-2.4,0.5-3.2,1.4c-0.9,0.9-1.3,2.1-1.3,3.3c0,0.8,0.3,1.6,0.7,2.3
			l-4.7,4.8c-2.7-2.3-6-3.5-9.3-3.7l0-2.5c2-0.6,3.4-2.4,3.4-4.5c0-2.5-2.1-4.6-4.7-4.6c-2.5,0-4.6,2.1-4.6,4.7
			c0,2.1,1.5,3.9,3.5,4.4l0,2.5c-3.2,0.3-6.4,1.5-9,3.8l-4.6-4.5c1-1.8,0.7-4.1-0.8-5.5c-1.8-1.8-4.8-1.7-6.5,0.1
			c-1.8,1.8-1.7,4.8,0.1,6.5c0,0,0,0,0,0c0.9,0.9,2.1,1.3,3.3,1.3c0.8,0,1.6-0.2,2.3-0.7l4.6,4.5c-2.4,2.7-3.7,6.1-3.9,9.5l-2.5,0
			c-0.6-2-2.4-3.4-4.5-3.4c-2.5,0-4.6,2.1-4.6,4.7c0,2.5,2.1,4.6,4.7,4.6c2.1,0,3.9-1.5,4.4-3.5l2.5,0c0.3,3.3,1.6,6.5,3.9,9.2
			l-4.3,4.4c-1.8-1-4.1-0.7-5.5,0.8c-1.8,1.8-1.7,4.8,0.1,6.5c0.9,0.9,2.1,1.3,3.3,1.3c1.2,0,2.4-0.5,3.3-1.4c0,0,0,0,0,0
			c1.5-1.5,1.7-3.8,0.7-5.6l4.3-4.4c2.7,2.3,6,3.5,9.3,3.7l0,2.5c-2,0.6-3.4,2.4-3.4,4.5c0,2.5,2.1,4.6,4.7,4.6
			c2.5,0,4.6-2.1,4.6-4.7c0-2.1-1.5-3.9-3.5-4.4l0-2.5c3.4-0.3,6.7-1.7,9.4-4.1l4.6,4.5c-0.4,0.7-0.6,1.5-0.6,2.3
			c0,1.2,0.5,2.4,1.4,3.2c0.9,0.9,2.1,1.3,3.3,1.3c1.2,0,2.4-0.5,3.2-1.4c0.9-0.9,1.3-2.1,1.3-3.3c0-1.2-0.5-2.4-1.4-3.2
			c-0.9-0.9-2.1-1.3-3.3-1.3c-0.8,0-1.6,0.3-2.3,0.7l-4.6-4.5c2.2-2.7,3.3-5.8,3.5-9.1L584.8,61.1z M561,52.6c0-1.6,1.3-3,2.9-3
			c1.6,0,3,1.3,3,2.9c0,1.6-1.3,3-2.9,3C562.3,55.5,561,54.2,561,52.6z M566.2,61.6c-1.1,0-2.1-0.9-2.1-2c0-1.1,0.9-2.1,2-2.1
			c1.1,0,2.1,0.9,2.1,2C568.2,60.7,567.3,61.6,566.2,61.6z M572.3,58.8c-1.3,0-2.3-1-2.4-2.3c0-1.3,1-2.3,2.3-2.4
			c1.3,0,2.3,1,2.4,2.3C574.6,57.8,573.6,58.8,572.3,58.8z"/>
		<path class="st1" d="M466.6,79c0.4,1.3,1.5,2.2,2.9,2.2c1.6,0,2.9-1.4,2.9-3c0-1.6-1.4-2.9-3-2.9c-1.4,0-2.5,1-2.8,2.2l-1.6,0
			c-0.2-2.1-1-4.2-2.5-5.9l3-3.1c0.4,0.2,0.9,0.4,1.5,0.4c0.8,0,1.5-0.3,2.1-0.9c0.6-0.6,0.9-1.3,0.8-2.1c0-0.8-0.3-1.5-0.9-2.1
			c-0.6-0.6-1.3-0.9-2.1-0.8c-0.8,0-1.5,0.3-2.1,0.9c-0.6,0.6-0.9,1.3-0.8,2.1c0,0.5,0.2,1,0.4,1.5l-3,3.1c-1.7-1.5-3.8-2.2-5.9-2.4
			l0-1.6c1.3-0.4,2.2-1.5,2.2-2.9c0-1.6-1.4-2.9-3-2.9c-1.6,0-2.9,1.4-2.9,3c0,1.4,1,2.5,2.2,2.8l0,1.6c-2.1,0.2-4.1,1-5.8,2.4
			l-3-2.9c0.6-1.1,0.5-2.6-0.5-3.6c-1.2-1.1-3.1-1.1-4.2,0.1c-1.1,1.2-1.1,3.1,0.1,4.2c0,0,0,0,0,0c0.6,0.6,1.3,0.8,2.1,0.8
			c0.5,0,1-0.2,1.5-0.4l3,2.9c-1.5,1.8-2.4,3.9-2.5,6.1l-1.6,0c-0.4-1.3-1.5-2.2-2.9-2.2c-1.6,0-2.9,1.4-2.9,3c0,1.6,1.4,2.9,3,2.9
			c1.4,0,2.5-1,2.8-2.2l1.6,0c0.2,2.1,1,4.2,2.5,5.9l-2.8,2.9c-1.1-0.6-2.6-0.5-3.6,0.5c-1.1,1.2-1.1,3.1,0.1,4.2
			c0.6,0.6,1.3,0.8,2.1,0.8c0.8,0,1.5-0.3,2.1-0.9c0,0,0,0,0,0c1-1,1.1-2.4,0.4-3.6l2.8-2.9c1.7,1.5,3.8,2.2,5.9,2.4l0,1.6
			c-1.3,0.4-2.2,1.5-2.2,2.9c0,1.6,1.4,2.9,3,2.9c1.6,0,2.9-1.4,2.9-3c0-1.4-1-2.5-2.2-2.8l0-1.6c2.2-0.2,4.3-1.1,6-2.6l3,2.9
			c-0.2,0.4-0.4,0.9-0.4,1.5c0,0.8,0.3,1.5,0.9,2.1c0.6,0.6,1.3,0.9,2.1,0.8c0.8,0,1.5-0.3,2.1-0.9c0.6-0.6,0.9-1.3,0.8-2.1
			c0-0.8-0.3-1.5-0.9-2.1c-0.6-0.6-1.3-0.9-2.1-0.8c-0.5,0-1,0.2-1.5,0.4l-3-2.9c1.4-1.7,2.1-3.7,2.3-5.8L466.6,79z M451.3,73.5
			c0-1,0.8-1.9,1.9-1.9c1,0,1.9,0.8,1.9,1.9c0,1-0.8,1.9-1.9,1.9C452.2,75.4,451.4,74.6,451.3,73.5z M454.7,79.4
			c-0.7,0-1.3-0.6-1.3-1.3c0-0.7,0.6-1.3,1.3-1.3c0.7,0,1.3,0.6,1.3,1.3C456,78.8,455.4,79.4,454.7,79.4z M458.6,77.6
			c-0.8,0-1.5-0.6-1.5-1.5c0-0.8,0.6-1.5,1.5-1.5c0.8,0,1.5,0.6,1.5,1.5C460.1,76.9,459.4,77.6,458.6,77.6z"/>
		<path class="st1" d="M286.9,114.4c0.4,1.3,1.5,2.2,2.9,2.2c1.6,0,2.9-1.4,2.9-3c0-1.6-1.4-2.9-3-2.9c-1.4,0-2.5,1-2.8,2.2l-1.6,0
			c-0.2-2.1-1-4.2-2.5-5.9l3-3.1c0.4,0.2,0.9,0.4,1.5,0.4c0.8,0,1.5-0.3,2.1-0.9c0.6-0.6,0.9-1.3,0.8-2.1c0-0.8-0.3-1.5-0.9-2.1
			c-0.6-0.6-1.3-0.9-2.1-0.8c-0.8,0-1.5,0.3-2.1,0.9c-0.6,0.6-0.9,1.3-0.8,2.1c0,0.5,0.2,1,0.4,1.5l-3,3.1c-1.7-1.5-3.8-2.2-5.9-2.4
			l0-1.6c1.3-0.4,2.2-1.5,2.2-2.9c0-1.6-1.4-2.9-3-2.9c-1.6,0-2.9,1.4-2.9,3c0,1.4,1,2.5,2.2,2.8l0,1.6c-2.1,0.2-4.1,1-5.8,2.4
			l-3-2.9c0.6-1.1,0.5-2.6-0.5-3.6c-1.2-1.1-3.1-1.1-4.2,0.1c-1.1,1.2-1.1,3.1,0.1,4.2c0,0,0,0,0,0c0.6,0.6,1.3,0.8,2.1,0.8
			c0.5,0,1-0.2,1.5-0.4l3,2.9c-1.5,1.8-2.4,3.9-2.5,6.1l-1.6,0c-0.4-1.3-1.5-2.2-2.9-2.2c-1.6,0-2.9,1.4-2.9,3s1.4,2.9,3,2.9
			c1.4,0,2.5-1,2.8-2.2l1.6,0c0.2,2.1,1,4.2,2.5,5.9l-2.8,2.9c-1.1-0.6-2.6-0.5-3.6,0.5c-1.1,1.2-1.1,3.1,0.1,4.2
			c0.6,0.6,1.3,0.8,2.1,0.8c0.8,0,1.5-0.3,2.1-0.9c0,0,0,0,0,0c1-1,1.1-2.4,0.4-3.6l2.8-2.9c1.7,1.5,3.8,2.2,5.9,2.4l0,1.6
			c-1.3,0.4-2.2,1.5-2.2,2.9c0,1.6,1.4,2.9,3,2.9c1.6,0,2.9-1.4,2.9-3c0-1.4-1-2.5-2.2-2.8l0-1.6c2.2-0.2,4.3-1.1,6-2.6l3,2.9
			c-0.2,0.4-0.4,0.9-0.4,1.5c0,0.8,0.3,1.5,0.9,2.1c0.6,0.6,1.3,0.9,2.1,0.8c0.8,0,1.5-0.3,2.1-0.9c0.6-0.6,0.9-1.3,0.8-2.1
			c0-0.8-0.3-1.5-0.9-2.1c-0.6-0.6-1.3-0.9-2.1-0.8c-0.5,0-1,0.2-1.5,0.4l-3-2.9c1.4-1.7,2.1-3.7,2.3-5.8L286.9,114.4z M271.6,108.9
			c0-1,0.8-1.9,1.9-1.9c1,0,1.9,0.8,1.9,1.9c0,1-0.8,1.9-1.9,1.9C272.5,110.8,271.6,110,271.6,108.9z M275,114.8
			c-0.7,0-1.3-0.6-1.3-1.3c0-0.7,0.6-1.3,1.3-1.3c0.7,0,1.3,0.6,1.3,1.3C276.3,114.1,275.7,114.7,275,114.8z M278.9,113
			c-0.8,0-1.5-0.6-1.5-1.5c0-0.8,0.6-1.5,1.5-1.5c0.8,0,1.5,0.6,1.5,1.5C280.4,112.3,279.7,112.9,278.9,113z"/>
		<path class="st1" d="M365.1,47.9c0.4,1.5,1.8,2.6,3.5,2.6c2,0,3.6-1.7,3.6-3.6c0-2-1.7-3.6-3.6-3.6c-1.7,0-3,1.2-3.4,2.7l-2,0
			c-0.2-2.6-1.3-5.1-3.1-7.1l3.7-3.8c0.5,0.3,1.2,0.5,1.8,0.5c1,0,1.9-0.4,2.5-1.1c0.7-0.7,1-1.6,1-2.6c0-1-0.4-1.9-1.1-2.5
			c-0.7-0.7-1.6-1-2.6-1c-1,0-1.9,0.4-2.5,1.1c-0.7,0.7-1,1.6-1,2.6c0,0.6,0.2,1.2,0.5,1.8l-3.7,3.8c-2.1-1.8-4.6-2.7-7.2-2.9l0-2
			c1.5-0.4,2.6-1.8,2.6-3.5c0-2-1.7-3.6-3.6-3.6c-2,0-3.6,1.7-3.6,3.6c0,1.7,1.2,3,2.7,3.4l0,2c-2.5,0.2-5,1.2-7,2.9l-3.6-3.5
			c0.8-1.4,0.6-3.2-0.6-4.3c-1.4-1.4-3.7-1.4-5.1,0.1c-1.4,1.4-1.4,3.7,0.1,5.1c0,0,0,0,0,0c0.7,0.7,1.6,1,2.6,1
			c0.6,0,1.2-0.2,1.8-0.5l3.6,3.5c-1.8,2.1-2.9,4.7-3,7.4l-2,0c-0.4-1.5-1.8-2.6-3.5-2.6c-2,0-3.6,1.7-3.6,3.6c0,2,1.7,3.6,3.6,3.6
			c1.7,0,3-1.2,3.4-2.7l2,0c0.2,2.6,1.3,5.1,3.1,7.1l-3.4,3.5c-1.4-0.8-3.2-0.6-4.3,0.6c-1.4,1.4-1.4,3.7,0.1,5.1
			c0.7,0.7,1.6,1,2.6,1c0.9,0,1.8-0.4,2.5-1.1c0,0,0,0,0,0c1.2-1.2,1.3-3,0.5-4.3l3.4-3.5c2.1,1.8,4.6,2.7,7.2,2.9l0,2
			c-1.5,0.4-2.6,1.8-2.6,3.5c0,2,1.7,3.6,3.6,3.6c2,0,3.6-1.7,3.6-3.6c0-1.7-1.2-3-2.7-3.4l0-2c2.6-0.2,5.2-1.3,7.3-3.2l3.6,3.5
			c-0.3,0.5-0.5,1.2-0.5,1.8c0,1,0.4,1.9,1.1,2.5c0.7,0.7,1.6,1,2.6,1c1,0,1.9-0.4,2.5-1.1c0.7-0.7,1-1.6,1-2.6c0-1-0.4-1.9-1.1-2.5
			c-0.7-0.7-1.6-1-2.6-1c-0.6,0-1.2,0.2-1.8,0.5l-3.6-3.5c1.7-2.1,2.6-4.5,2.7-7.1L365.1,47.9z M346.5,41.2c0-1.3,1-2.3,2.3-2.3
			c1.3,0,2.3,1,2.3,2.3c0,1.3-1,2.3-2.3,2.3C347.6,43.5,346.6,42.5,346.5,41.2z M350.6,48.3c-0.9,0-1.6-0.7-1.6-1.6
			c0-0.9,0.7-1.6,1.6-1.6c0.9,0,1.6,0.7,1.6,1.6C352.2,47.5,351.5,48.3,350.6,48.3z M355.4,46.1c-1,0-1.8-0.8-1.8-1.8
			c0-1,0.8-1.8,1.8-1.8c1,0,1.8,0.8,1.8,1.8C357.2,45.3,356.4,46.1,355.4,46.1z"/>
		<path class="st0" d="M703,413.2c1,1.8,3,2.8,5.1,2.3c2.5-0.6,4-3.1,3.4-5.6c-0.6-2.5-3.1-4-5.6-3.4c-2.1,0.5-3.5,2.3-3.6,4.3
			l-2.5,0.6c-1-3.2-3-6-5.8-8.1l3.6-5.7c0.8,0.2,1.6,0.3,2.4,0.1c1.2-0.3,2.2-1,2.9-2.1c0.7-1.1,0.9-2.3,0.6-3.5
			c-0.3-1.2-1-2.2-2.1-2.9c-1-0.7-2.3-0.9-3.5-0.6c-1.2,0.3-2.2,1-2.9,2.1c-0.7,1.1-0.9,2.3-0.6,3.5c0.2,0.8,0.6,1.5,1.1,2.1
			l-3.6,5.7c-3.1-1.6-6.6-2.1-9.9-1.6l-0.6-2.5c1.8-1,2.8-3,2.3-5.1c-0.6-2.5-3.1-4-5.6-3.4c-2.5,0.6-4,3.1-3.4,5.6
			c0.5,2.1,2.3,3.5,4.3,3.6l0.6,2.5c-3.1,1-5.9,2.9-8,5.6l-5.5-3.4c0.6-2-0.2-4.1-2-5.2c-2.2-1.3-5-0.7-6.4,1.5
			c-1.3,2.2-0.7,5,1.5,6.4c0,0,0,0,0,0c1.1,0.7,2.3,0.8,3.5,0.6c0.8-0.2,1.5-0.6,2.1-1.1l5.5,3.4c-1.7,3.2-2.3,6.7-1.7,10.1
			l-2.5,0.6c-1-1.8-3-2.8-5.1-2.3c-2.5,0.6-4,3.1-3.4,5.6c0.6,2.5,3.1,4,5.6,3.4c2.1-0.5,3.5-2.3,3.6-4.3l2.5-0.6c1,3.2,3,6,5.8,8.1
			l-3.3,5.3c-2-0.6-4.1,0.2-5.2,2c-1.3,2.2-0.7,5,1.5,6.4c1.1,0.7,2.3,0.8,3.5,0.6c1.2-0.3,2.2-1,2.9-2.1c0,0,0,0,0,0
			c1.1-1.8,0.8-4.1-0.6-5.6l3.3-5.3c3.1,1.6,6.6,2.1,9.9,1.6l0.6,2.5c-1.8,1-2.8,3-2.3,5.1c0.6,2.5,3.1,4,5.6,3.4
			c2.5-0.6,4-3.1,3.4-5.6c-0.5-2.1-2.3-3.5-4.3-3.6l-0.6-2.5c3.2-1,6.2-3.1,8.3-6.1l5.5,3.4c-0.2,0.8-0.3,1.6-0.1,2.4
			c0.3,1.2,1,2.2,2.1,2.9c1.1,0.7,2.3,0.9,3.5,0.6c1.2-0.3,2.2-1,2.9-2.1c0.7-1.1,0.9-2.3,0.6-3.5c-0.3-1.2-1-2.2-2.1-2.9
			c-1.1-0.7-2.3-0.9-3.5-0.6c-0.8,0.2-1.5,0.6-2.1,1.1l-5.5-3.4c1.5-3.1,2-6.4,1.5-9.6L703,413.2z M677.8,410
			c-0.4-1.6,0.6-3.2,2.2-3.5c1.6-0.4,3.2,0.6,3.5,2.2c0.4,1.6-0.6,3.2-2.2,3.5C679.8,412.6,678.2,411.6,677.8,410z M684.9,417.7
			c-1.1,0.3-2.2-0.4-2.5-1.5c-0.3-1.1,0.4-2.2,1.5-2.5c1.1-0.3,2.2,0.4,2.5,1.5S686,417.5,684.9,417.7z M690.3,413.7
			c-1.2,0.3-2.5-0.5-2.8-1.7c-0.3-1.3,0.5-2.5,1.7-2.8c1.3-0.3,2.5,0.5,2.8,1.7S691.5,413.4,690.3,413.7z"/>
		<path class="st0" d="M201.8,47c1,1.8,3,2.8,5.1,2.3c2.5-0.6,4-3.1,3.4-5.6c-0.6-2.5-3.1-4-5.6-3.4c-2.1,0.5-3.5,2.3-3.6,4.3
			l-2.5,0.6c-1-3.2-3-6-5.8-8.1l3.6-5.7c0.8,0.2,1.6,0.3,2.4,0.1c1.2-0.3,2.2-1,2.9-2.1c0.7-1.1,0.9-2.3,0.6-3.5
			c-0.3-1.2-1-2.2-2.1-2.9c-1-0.7-2.3-0.9-3.5-0.6c-1.2,0.3-2.2,1-2.9,2.1c-0.7,1.1-0.9,2.3-0.6,3.5c0.2,0.8,0.6,1.5,1.1,2.1
			l-3.6,5.7c-3.1-1.6-6.6-2.1-9.9-1.6l-0.6-2.5c1.8-1,2.8-3,2.3-5.1c-0.6-2.5-3.1-4-5.6-3.4c-2.5,0.6-4,3.1-3.4,5.6
			c0.5,2.1,2.3,3.5,4.3,3.6l0.6,2.5c-3.1,1-5.9,2.9-8,5.6l-5.5-3.4c0.6-2-0.2-4.1-2-5.2c-2.2-1.3-5-0.7-6.4,1.5
			c-1.3,2.2-0.7,5,1.5,6.4c0,0,0,0,0,0c1.1,0.7,2.3,0.8,3.5,0.6c0.8-0.2,1.5-0.6,2.1-1.1l5.5,3.4c-1.7,3.2-2.3,6.7-1.7,10.1
			l-2.5,0.6c-1-1.8-3-2.8-5.1-2.3c-2.5,0.6-4,3.1-3.4,5.6c0.6,2.5,3.1,4,5.6,3.4c2.1-0.5,3.5-2.3,3.6-4.3l2.5-0.6c1,3.2,3,6,5.8,8.1
			l-3.3,5.3c-2-0.6-4.1,0.2-5.2,2c-1.3,2.2-0.7,5,1.5,6.4c1.1,0.7,2.3,0.8,3.5,0.6c1.2-0.3,2.2-1,2.9-2.1c0,0,0,0,0,0
			c1.1-1.8,0.8-4.1-0.6-5.6l3.3-5.3c3.1,1.6,6.6,2.1,9.9,1.6l0.6,2.5c-1.8,1-2.8,3-2.3,5.1c0.6,2.5,3.1,4,5.6,3.4
			c2.5-0.6,4-3.1,3.4-5.6c-0.5-2.1-2.3-3.5-4.3-3.6l-0.6-2.5c3.2-1,6.2-3.1,8.3-6.1l5.5,3.4c-0.2,0.8-0.3,1.6-0.1,2.4
			c0.3,1.2,1,2.2,2.1,2.9c1.1,0.7,2.3,0.9,3.5,0.6c1.2-0.3,2.2-1,2.9-2.1c0.7-1.1,0.9-2.3,0.6-3.5c-0.3-1.2-1-2.2-2.1-2.9
			c-1.1-0.7-2.3-0.9-3.5-0.6c-0.8,0.2-1.5,0.6-2.1,1.1l-5.5-3.4c1.5-3.1,2-6.4,1.5-9.6L201.8,47z M176.7,43.8
			c-0.4-1.6,0.6-3.2,2.2-3.5c1.6-0.4,3.2,0.6,3.5,2.2c0.4,1.6-0.6,3.2-2.2,3.5C178.6,46.4,177.1,45.4,176.7,43.8z M183.7,51.6
			c-1.1,0.3-2.2-0.4-2.5-1.5c-0.3-1.1,0.4-2.2,1.5-2.5c1.1-0.3,2.2,0.4,2.5,1.5C185.5,50.2,184.8,51.3,183.7,51.6z M189.1,47.5
			c-1.2,0.3-2.5-0.5-2.8-1.7s0.5-2.5,1.7-2.8c1.3-0.3,2.5,0.5,2.8,1.7C191.1,46,190.4,47.2,189.1,47.5z"/>
	</g>
	<g>
		<g>
			<polygon class="st2" points="559.8,395.8 566.9,499.4 493.6,499.4 493.6,483.8 489.2,499.4 391.5,499.4 411,395.8 			"/>
			<path class="st3" d="M407.2,416.5l3.9-20.6h148.8l0.8,3.1C549.4,400.5,446.8,417.3,407.2,416.5z"/>
			<polyline class="st4" points="493.6,483.8 498,458.3 520,454 			"/>
			<line class="st4" x1="419.8" y1="410.9" x2="404.5" y2="499.4"/>
			<path class="st4" d="M432.9,410.9c0,0-4,35.4-19.5,36.7"/>
			<path class="st4" d="M508.2,439.1L508.2,439.1v-43.2h10.7v32.5C518.9,434.3,514.1,439.1,508.2,439.1z"/>
			<line class="st4" x1="508.2" y1="439.1" x2="508.2" y2="456.3"/>
		</g>
		<g>
			<path class="st5" d="M734.8,227.7l-45.4,5.7c-3.6,0.5-6.9-2.1-7.4-5.7l0,0c-0.5-3.6,2.1-6.9,5.7-7.4l45.4-5.7
				c3.6-0.5,6.9,2.1,7.4,5.7l0,0C741,223.9,738.4,227.3,734.8,227.7z"/>
			<g>
				<path class="st6" d="M682,229c-4.5,10.3-14.6,35-18.7,58.8c-1.2,7.4,4.4,14.1,11.9,14.1H718c6.2,0,11.4-4.7,12-10.9
					c1-10.6,0-27.4-11.7-43.4c-4-5.5-5.5-11.6-6.1-16.3c-0.5-4.2-4-7.3-8.2-7.3h-14.3C686.3,224,683.4,226,682,229z"/>
				<path class="st7" d="M673.8,287.8c4-23.8,14.2-48.6,18.7-58.8c1.3-3,4.3-5,7.6-5h-10.4c-3.3,0-6.3,1.9-7.6,5
					c-4.5,10.3-14.6,35-18.7,58.8c-1.2,7.4,4.4,14.1,11.9,14.1h10.4C678.1,301.9,672.5,295.2,673.8,287.8z"/>
				<rect x="687.9" y="215.7" class="st1" width="18.2" height="8.3"/>
				<polygon class="st2" points="728.6,196.8 679.8,193.4 679.8,205 689.8,209.7 689.8,215.7 704.2,215.7 704.2,210.9 710.2,209.7 
					721.5,231 726.1,229.9 720.9,207.7 728.6,206.2 				"/>
				<polygon class="st3" points="689.8,209.7 704.2,210.9 704.2,215.7 689.8,215.7 				"/>
				<line class="st4" x1="710.2" y1="209.7" x2="720.9" y2="207.7"/>
				<polygon class="st8" points="728.6,197.8 731,198.8 731,204.4 728.6,204.9 				"/>
			</g>
			<path class="st5" d="M723.7,247.9c0.9-1,1.4-2.1,1.4-3.4c0-2.7-2.5-5-6-5.9c1.1-1,1.7-2.3,1.7-3.7c0-3.5-4.3-6.4-9.6-6.4
				c-5.3,0-9.6,2.9-9.6,6.4c0,2.7,2.5,5,6,5.9c-1.1,1-1.7,2.3-1.7,3.7c0,2.8,2.6,5.1,6.3,6c-0.6,0.8-0.9,1.6-0.9,2.6
				c0,3.2,3.9,5.8,8.7,5.8c4.8,0,8.7-2.6,8.7-5.8C728.6,250.8,726.6,248.8,723.7,247.9z"/>
			<path class="st5" d="M695.3,215.6c-3.8-0.3-7.5,0.7-11.3,0.6c-3.7-0.1-7.2-0.5-11-0.3c-9.5,0.4-12.7,6.8-17.9,12.6
				c-3.3,3.6-6.9,7.8-9.4,11.8c-1.3,2.1-47.9,69.9-47.9,69.9l-5.5-8.6l-63.3,39l26.6,42.2c14.2,17,39.3,15.5,39.3,15.5
				c59.7-2.6,79-120.7,79.9-126.4c1.6-2.4,2.8-5.1,3.5-7.4c1.1-3.5,1.7-7,1.9-10.7c0.2-3-0.9-6,0.1-8.9c1.8-5.6,5.2-11.4,4.9-17.4
				c4.1-0.5,11.4-1.4,14.6-3.9C704.2,220.3,700.3,216,695.3,215.6z"/>
			<path class="st9" d="M456.8,170.7c-0.5-8-3-15.8-1.7-24.1c0.8-5.6,2.5-13.5,9.3-13.3c0.1-5.9,9.8-7.1,14-7.3
				c4.4-0.2,8.8,0.3,13.1,0c3.4-0.3,5.3-1.7,8.3-2.6c4.7-1.4,4.9,1.7,6.7,4.4c2.5,3.6,10.7-0.4,14.6,0.8c5.8,1.7,8.8,6.7,8,12.6
				c-0.6,4.2-3.3,6.7-4.7,10.3c3.5,0.1,4.9,3.3,3.9,6.5c-1.3,3.9-5.7,6.8-9.2,8.5c-2.5,1.2-5.2,1.6-7.9,2.4c-3.8,1.1-7.4,3-11.3,3.8
				c-8.5,1.7-16.8,2-25.4,2.1c-4.6,0-10.1-0.7-14.5-2.1c-0.8-0.3-1.4-0.5-2.2-0.9C456.9,171.2,457,170.8,456.8,170.7z"/>
			<path class="st10" d="M592.5,301.6l-63.3,39l23.2,36.8C560.8,339.5,592.5,301.6,592.5,301.6z"/>
			<path class="st11" d="M486.1,214.9c-6.3-0.9-12.8-0.9-19.1,0.1c-18.8,2.9-67.3,12.3-73.5,40.3c-7,31.4-10.5,150.9-10.5,150.9
				h182.5l-5-80.3l34.1-25.8l-34.1-47.6C560.4,252.5,543,223.1,486.1,214.9z"/>
			<path class="st12" d="M493.3,247.6c25.2-1.4,28.6-15.5,28.6-23.3c-9.7-3.9-21.5-7.4-35.8-9.4c-6.3-0.9-12.8-0.9-19.1,0.1
				c-5.3,0.8-12.9,2.1-21.2,4.2v0C445.8,219.2,448.1,250.1,493.3,247.6z"/>
			<path class="st5" d="M492.5,238.8c14.6,0,19.1-3.5,21.4-17.5c-8-2.7-17.2-4.9-27.8-6.5c-6.3-0.9-12.8-0.9-19.1,0.1
				c-3.3,0.5-7.2,1.2-11.4,2.2C455.9,233.1,476.5,238.8,492.5,238.8z"/>
			<rect x="466.5" y="180.3" class="st5" width="32.1" height="45"/>
			<path class="st10" d="M466.5,180.3v12.8c0,0,16.6,19.9,32.1,21.1v-33.9H466.5z"/>
			<path class="st13" d="M597.9,310.2c0,0-9.6,7.9-12.8,15.7"/>
			<path class="st14" d="M639.1,290.4c0-0.1,0-0.2,0-0.3"/>
			<polygon class="st5" points="449.9,499.7 382.9,499.7 386.1,332.3 449.9,332.3 			"/>
			<polygon class="st10" points="386.1,332.3 449.9,332.3 385.5,343.1 			"/>
			<line class="st15" x1="449.9" y1="332.3" x2="451.7" y2="290.9"/>
			<line class="st15" x1="560.4" y1="325.9" x2="556.5" y2="290.1"/>
			<path class="st5" d="M482.5,153.3c-2,12.4-19.8,15.8-19.8,15.8l-2.9-8.7c-1.7-1-3.7-1.2-5.5-0.6c-3.8,1.4-5.5,6.4-3.8,11.2
				c1.6,4.4,5.6,7.1,9.2,6.4c2.5,15.8,15.2,27.7,30.5,27.7c17.1,0,31-15,31-33.5c0-4.7-0.9-9.2-2.5-13.3
				C506.2,162.1,482.5,153.3,482.5,153.3z"/>
			<path class="st9" d="M462.1,167.2c0,0-12.2,36.1,33.2,41.6c0,0,19,3.2,23.7-7.6c4.6-10.3,1.1-20.4,1.1-20.4s-18.9,3.1-41.1-3.6
				c0,0-6.6-6.4-6.9-13.8L462.1,167.2z"/>
			<line class="st13" x1="685.3" y1="227.6" x2="676.3" y2="229.2"/>
			<path class="st13" d="M679.8,246.1c0,0-2.5,6.2-10.1,9.2"/>
			<path class="st13" d="M707.7,240.8c0,0,6.4-3,11.5-2.3"/>
			<path class="st13" d="M712.2,250.5c0,0,5.5-3,11.5-2.7"/>
			<polygon class="st2" points="528.3,157.9 472.4,157.5 472.4,146.7 528.3,147 			"/>
			<path class="st16" d="M477,143.8l0.1,28.3c0.2,3.2,2.1,6,5,7.5l3,1.5c2.9,1.5,4.8,4.3,5,7.5l0.7,11.5c0.2,3.9,3.5,7,7.4,7.1
				l30,0.6l0.3-64H477z"/>
			<rect x="453.7" y="149.5" class="st12" width="18.7" height="4.6"/>
			<rect x="496.9" y="143.8" class="st17" width="8.6" height="63.5"/>
			<rect x="508.9" y="143.8" class="st17" width="4.3" height="63.5"/>
		</g>
	</g>
	<g>
		<g>
			<polygon class="st18" points="124.6,388.5 98,500.1 186.2,500.1 190.9,483.3 195.3,500.1 281.9,500.1 268.8,388.5 			"/>
			<path class="st19" d="M271,407l-2.2-18.5H124.6l-0.8,3.4C135.1,393.6,231.3,407.9,271,407z"/>
			<polyline class="st20" points="190.9,483.3 186.5,455.8 164.5,451.2 			"/>
			<line class="st20" x1="251.7" y1="391.9" x2="269" y2="500.1"/>
			<path class="st20" d="M239,391.9c0,0,5.6,51,21,52.4"/>
		</g>
		<path class="st5" d="M73.4,295c0,0-36.4,68.8,2.8,96.9c0,0,15.3,6.1,29.6-1.5s30.9-45.8,30.9-45.8l-26.9-27.3l-5.9,6.9l1.9-29.2
			H73.4z"/>
		<path class="st10" d="M58.3,345.8c14.5-13.7,46.8-39.8,46.8-39.8v0l0.7-10.9H73.4C73.4,295,60.3,319.9,58.3,345.8z"/>
		<path class="st10" d="M109.8,317.3l-5.9,6.9c0,0,17.4,31.5,17.8,48.5c8.4-13.1,14.9-28.1,14.9-28.1L109.8,317.3z"/>
		<g>
			<path class="st5" d="M75.4,285c0,0-9.7-13.5-24.6-6.3c-11.5,5.6-21.1,0.6-22.8,5.4c-1.7,4.8,10.8,8.6,19.4,8
				c0,0-18.3,16.1-21.6,28s10,1.5,10,1.5s-8.1,8.7-5.7,11.5c2.9,3.5,8.6,1.2,11.5-1.7c0,0-0.8,5.8,4.5,4.9
				c3.3-0.5,10.1-6.1,10.1-6.1s-5.2,6.6-1.3,7.5c3.9,0.9,10-1.9,19.6-12.2C84,315.2,106.5,294.8,75.4,285z"/>
			<path class="st13" d="M47.4,292.1c0,0,11.4,5.7,18,2.7"/>
			<line class="st13" x1="35.8" y1="321.6" x2="50.3" y2="306.2"/>
			<path class="st13" d="M41.5,331.4c0.1-0.6,19.4-20.3,19.4-20.3"/>
			<line class="st13" x1="56.1" y1="330.2" x2="69.2" y2="316"/>
			<line class="st13" x1="48.2" y1="304.5" x2="74.2" y2="318.6"/>
		</g>
		<path class="st9" d="M284,220.6c-5.8-33.1-46.5-27.3-48.8-33.8c-2.3-6.5,6-16.9,0-37.3c-4.5-15.4-21.9-16.8-30.3-16.5
			c-0.1-1.8-0.6-3.8-0.8-4.8c-0.2-1.5-1.1-10.1-4.2-8.5c-2.7,1.4-0.5,6.7-0.4,8.9c-0.6-2.5-5.7-14.2-9.5-10.7
			c-1.3,1.2-1.1,3.2-0.3,5.2c-9.1-6.4-21.6-10.4-32.7-0.7c-11.7,10.4-9.1,24.9-6.6,32.7c1,3,0.4,6.3-1.6,8.7
			c-4.7,5.7-8.2,15.4-8.2,15.4c-27.5-0.8-44,30.3-33.9,60.1c10.1,29.8,45.8,33.3,45.8,33.3c24.8,24.5,69.2,8.2,69.2,8.2
			C276,288.2,289.8,253.7,284,220.6z"/>
		<path class="st6" d="M185,217.4c0,0-52.3,3.1-67.5,19.7c-15.3,16.6-40,74.3-40,74.3l25.7,19.1c0,0,6.4,11.6,16.8,19.3l-0.9,42
			h155.2l-5-56.3c-0.2-4.6-0.1-9.1,0.2-13.7c1.6-20,24.9-82.1-48.2-95L185,217.4z"/>
		<path class="st21" d="M119.9,349.7c0,0,51.2-15.3,98.2,0"/>
		<path class="st12" d="M185.7,259.2c20.9,0,38.8-15.6,39.5-31.6c-1.3-0.3-2.7-0.6-4.1-0.9l-36.1-9.3c0,0-18.4,1.1-36.6,5.5
			c-0.2,1.2-0.3,2.5-0.3,3.8C148,243.1,164.4,259.2,185.7,259.2z"/>
		<path class="st5" d="M219.4,226.3l-13.4-3.5l1.8-32.4h-31.4l-6.1,28.5c-4.6,0.6-9.9,1.4-15.4,2.5c-0.6,2-1,4-1,6.1
			c0,14,14.7,25.3,32.8,25.3s32.8-11.3,32.8-25.3C219.4,227.1,219.4,226.7,219.4,226.3z"/>
		<path class="st10" d="M171.1,214.9c24.9-1.2,36.6-22.4,36.6-22.4h0l0.1-2.2h-31.4L171.1,214.9z"/>
		<path class="st5" d="M215.7,171c-1.7-0.6-3.6-0.3-5.3,0.6c0,0-2.7,5.6-2.6,9.3c0,0-2.5-6.7-5.6-7.3c-2.4-0.5-8.7,0-15.2-2.5
			c-1.8-0.6-3.4-1.4-4.9-2.4c0,0,0,0,0,0c-0.2-0.1-0.3-0.2-0.4-0.3c-7.2-5.4-10.7-15.1-10.7-15.1l-8.9,7.3
			c-3.1,2.5-4.9,6.2-5.1,10.2c0,1,0,2,0,3.3c0,17.9,12.5,32.4,27.8,32.4c10.9,0,20.2-7.2,24.8-17.8c0,0,0,0,0,0
			c3.9,1.3,8.3-1.6,10-6.4C221.4,177.3,219.6,172.3,215.7,171z"/>
		<path class="st10" d="M202.2,173.5c-2.4-0.5-8.7,0-15.2-2.5c-1.8-0.6-3.4-1.4-4.9-2.4c0,0,0,0,0,0c-0.2-0.1-0.3-0.2-0.4-0.3
			c-7.2-5.4-10.7-15.1-10.7-15.1l-5.2,4.3c3.2,5,10.5,14.8,18.2,15c7,0.2,14.4,0.8,18.4,1.1C202.4,173.6,202.3,173.6,202.2,173.5z"
			/>
		<path class="st22" d="M220.3,284.2c-13.1,18-25.1,34.4-25.1,34.4l55.3,42.1"/>
		<g>
			<path class="st12" d="M73.6,284.8C73.6,284.8,73.6,284.8,73.6,284.8c0-3.2-2.6-5.9-5.9-5.9c-2.3,0-4.4,1.4-5.3,3.4
				c-0.6-0.2-1.2-0.3-1.9-0.3c0,0,0,0,0,0c0-2.9-2.4-5.3-5.3-5.3c-2.9,0-5.3,2.4-5.3,5.3c0,0.1,0,0.1,0,0.2c-0.5-0.1-1-0.2-1.5-0.2
				c-3.1,0-5.5,2.5-5.5,5.5c0,3.1,2.5,5.5,5.5,5.5c0.3,0,0.6,0,0.9-0.1c-0.5,0.9-0.9,2-0.9,3.2c0,3.5,2.9,6.4,6.4,6.4
				c2.8,0,5.1-1.8,6-4.2c0.1,0,0.2,0,0.3,0c1.3,2.3,3.7,3.9,6.5,3.9c3.7,0,6.8-2.7,7.3-6.2c2.4-0.7,4.2-2.9,4.2-5.5
				C79.1,287.4,76.6,284.9,73.6,284.8z"/>
			<path class="st12" d="M62.9,268.6c1.9,0,3.5-1.6,3.5-3.5s-1.6-3.5-3.5-3.5c-1.9,0-3.5,1.6-3.5,3.5S61,268.6,62.9,268.6z"/>
			<path class="st12" d="M49.5,270.6c1.1,0,2.1-0.9,2.1-2.1c0-1.1-0.9-2.1-2.1-2.1s-2.1,0.9-2.1,2.1
				C47.4,269.7,48.4,270.6,49.5,270.6z"/>
			<path class="st12" d="M40.7,306.2c0.1-0.3,0.1-0.6,0.1-0.9c0-2.2-1.7-3.9-3.9-3.9c-1.9,0-3.5,1.3-3.8,3.1c0,0-0.1,0-0.1,0
				c-2.6,0-4.7,2.1-4.7,4.7c0,2.6,2.1,4.7,4.7,4.7c1.2,0,2.3-0.5,3.1-1.2c0.7,1.9,2.5,3.3,4.6,3.3c2.7,0,4.9-2.2,4.9-4.9
				C45.5,308.4,43.3,306.2,40.7,306.2z"/>
			<circle class="st12" cx="44.2" cy="297.7" r="2.7"/>
			<path class="st12" d="M79,274.8c-0.9,0-1.6,0.7-1.6,1.6c0,0.9,0.7,1.6,1.6,1.6c0.9,0,1.6-0.7,1.6-1.6
				C80.6,275.5,79.9,274.8,79,274.8z"/>
			<path class="st12" d="M52.8,315.3c-1.4,0-2.5,1.1-2.5,2.5s1.1,2.5,2.5,2.5c1.4,0,2.5-1.1,2.5-2.5S54.2,315.3,52.8,315.3z"/>
			<path class="st12" d="M21.4,312.9c-1.6,0-2.8,1.3-2.8,2.8c0,1.6,1.3,2.8,2.8,2.8c1.6,0,2.8-1.3,2.8-2.8
				C24.3,314.2,23,312.9,21.4,312.9z"/>
			<path class="st12" d="M34.9,320.4c-1.1,0-2,0.9-2,2s0.9,2,2,2c1.1,0,2-0.9,2-2S36,320.4,34.9,320.4z"/>
		</g>
		<g>
			<path class="st5" d="M194.5,330.5l-63.4-37c0,0-10.1-18.7-19-21.2c-8.9-2.5-22-6.4-25-9.2c0,0-6-1.6-5.7,6
				c0.2,7.6,12.6,8.9,13.5,12.8c0,0-40.1,1.4-40.6,5.7c-0.5,4.4,2.2,7.5,15.6,9.1c0,0-19-0.8-20.2,3.5c-1.1,4.4,6.9,7.8,14,7.6
				c0,0-7.1,0-6.9,3.9c0.2,3.9,14.4,4.8,14.4,4.8s1.6,5.5,12.6,6.2c11,0.7,29.1,2.1,31.9,3.4c0,0,42.6,58.5,70.8,65.3
				c0,0,23.8,2.5,35.8-4.1c11.9-6.6,28.2-26.6,28.2-26.6l-49.1-37.6L194.5,330.5z"/>
			<path class="st10" d="M232.9,379.4c9.2-8.3,17.6-18.6,17.6-18.6l-49.1-37.6C201.5,323.1,236.4,358,232.9,379.4z"/>
			<line class="st13" x1="70" y1="296.7" x2="86.6" y2="297.8"/>
			<line class="st13" x1="62.7" y1="307.8" x2="85.7" y2="307.8"/>
			<line class="st13" x1="71.3" y1="316.5" x2="86.6" y2="317.3"/>
			<path class="st13" d="M94.9,281.9c0,0,6.3,0.6,6.1-2.1"/>
			<path class="st13" d="M115.8,326.1c0,0,7.2,0.3,8.8-1.3"/>
		</g>
		<path class="st12" d="M95.6,285.4c-0.2,0-0.4,0-0.6,0.1c0.1-0.3,0.1-0.7,0.1-1c0-2.5-2.1-4.6-4.6-4.6s-4.6,2.1-4.6,4.6
			c0,0.1,0,0.2,0,0.3c-2.2,0.8-3.9,2.9-3.9,5.4c0,3.1,2.6,5.7,5.7,5.7c2.5,0,4.7-1.7,5.4-3.9c0.6,0.5,1.5,0.9,2.4,0.9
			c2.1,0,3.7-1.7,3.7-3.7C99.3,287.1,97.6,285.4,95.6,285.4z"/>
		<g>
			<path class="st11" d="M40.7,253.8c0,3.9-2.8,7.1-6.7,7.1s-6.7-3.2-6.7-7.1c0-3.9,6.7-11.8,6.7-11.8S40.7,249.8,40.7,253.8z"/>
			<path class="st11" d="M61.1,265.1c0,2.9-2,5.3-4.9,5.3c-2.9,0-4.9-2.4-4.9-5.3c0-2.9,4.9-8.7,4.9-8.7S61.1,262.2,61.1,265.1z"/>
			<path class="st11" d="M57.1,234.3c0,2.9-2,5.3-4.9,5.3c-2.9,0-4.9-2.4-4.9-5.3c0-2.9,4.9-8.7,4.9-8.7S57.1,231.4,57.1,234.3z"/>
		</g>
		<path class="st23" d="M171.1,153.2c0,0-2.1-14.1-8.5-16"/>
		<line class="st21" x1="122.7" y1="280.9" x2="124.6" y2="268.6"/>
	</g>
	<g>
		<polygon class="st24" points="446.6,500.1 267.6,500.1 273.7,451 442.5,451 		"/>
		<path class="st25" d="M442.5,451H273.7l-3.4,27.8l0,0c6.6-6,172.2-12.2,172.2-12.2l1.2-1L442.5,451z"/>
		<rect x="349" y="466.6" class="st22" width="13.6" height="32.8"/>
		<path class="st2" d="M482.5,308.4c-3.4-4.3-6.4-8.9-9.2-13.6c-11.9-19.8-37.4-34.4-59.5-38.4c-24.4-4.4-48.8-10.6-48.8-10.6h-12.9
			c0,0-24.4,6.2-48.8,10.6c-22.1,4-47.6,18.6-59.5,38.4c-2.8,4.7-5.9,9.2-9.2,13.6c-11.5,14.8-34.1,48.7-17.7,69.7
			c0,0,21,21.4,52.9,7.1v81.3h177.6v-81.3c31.9,14.2,52.9-7.1,52.9-7.1C516.6,357.1,494,323.1,482.5,308.4z"/>
		<circle class="st2" cx="231.6" cy="343.5" r="38.1"/>
		<path class="st12" d="M406.2,255c-21.6-4.2-41.2-9.1-41.2-9.1h-12.9c0,0-17.1,4.3-37.1,8.3c5.8,19.8,24,34.3,45.7,34.3
			C382.1,288.4,400.2,274.3,406.2,255z"/>
		<path class="st5" d="M395.7,252.8c-17.1-3.6-30.7-7-30.7-7h-12.9c0,0-11.4,2.9-26.3,6.1c4.4,15.2,18.4,26.4,35.1,26.4
			C377.2,278.3,391,267.6,395.7,252.8z"/>
		<polygon class="st5" points="382.5,258.4 339.3,258.4 341.4,202.9 380.4,202.9 		"/>
		<path class="st10" d="M341.4,202.9l-0.4,11.5l0,0c0,0,11.5,16.2,40.5,16.2l-1-27.7H341.4z"/>
		<ellipse class="st5" cx="328.8" cy="184.6" rx="8.2" ry="10.3"/>
		<ellipse class="st5" cx="389.3" cy="184.6" rx="8.2" ry="10.3"/>
		<path class="st9" d="M396.3,148.2c-0.7-2.4-1.7-5.1-3.2-7.1c-1.3-1.7-3.4-3-4.6-4.5c1.5-1.4,1.7-3.2,1.1-5.1
			c-1.6-5.1-6.4-5.2-11.1-5.4c-1.8-0.1-3.7,0-5.5,0.2c-0.2-1.3-1.2-2.1-3.4-2.1c-4.3,0-7.7,1.8-10.9,4.2c0.9-3.5,0-7.4-4.3-4.2
			c-4.6,3.5-7.1,8.9-7.7,14.4c-2.5-1.3-5.7-1.7-8.5-1.6c-3.5,0.1-7.2,3.3-9.4,5.9c-4,4.8-4.1,11.1-4.4,17.1
			c-0.3,6.5,0.3,12.6,3,18.5c1.5,3.2,3.5,6.3,5.1,9.3l52.5,1.5c4.1-2.3,5.1-3.8,6.9-6.8c2-3.2,2-7.9,2.1-11.8
			c0.1-2.4-0.4-3.2,0.8-5.1C397.9,160.8,398,153.6,396.3,148.2z"/>
		<path class="st5" d="M364.3,168.8c-15.9,2.7-19.7-10.2-19.7-10.2c-12.5,7.8-14.5,15.8-15.9,21.6c0,0.7,0,1.4,0,2.2
			c0,22.4,14,40.5,31.2,40.5c17.2,0,31.2-18.1,31.2-40.5c0-3.3-0.3-6.5-0.9-9.6c-0.6-3.2-3.4-5.7-6.6-5.9
			C379.1,166.6,372.7,167.3,364.3,168.8z"/>
		<path class="st10" d="M390.6,174.9c-0.1-0.7-0.2-1.5-0.4-2.2c-0.6-3.2-3.4-5.7-6.6-5.9c-4.5-0.3-10.9,0.5-19.2,1.9
			c-15.9,2.7-19.7-10.2-19.7-10.2c-0.1,0-0.1,0.1-0.2,0.1c0.5,2.8,2,5.9,3.4,7.7c3.2,4.2,7.5,7.2,12.8,8.2c6.6,1.2,13.3-0.7,20-0.7
			C384,173.9,387.3,174.2,390.6,174.9z"/>
		<g>
			<path class="st5" d="M315.7,194.9c3.1-3.1-0.2-6.2-0.2-6.2c-4.4-3.1-3.2-15.8-11.9-18.3c-5.3-1.6-13,5.2-18.3,10.6l-2.2-1
				c-5.4-3.2-9.8,0-9.8,0c-9.3-5.4-15.4-0.7-15.4-0.7h-4.2c-10.8,1-7.5,10.5-12.9,18c-5.4,7.5-5.9,12-8.6,32.4
				c-2.7,20.3-48.5,78.3-37.3,112.2c11.2,33.9,39.3,29.5,39.3,29.5c38.8-7.5,37.3-52,39.3-73.9c2-21.9,8.6-56.9,8.6-56.9
				c13.7,2,23.6-13.6,25.3-21.9c1.7-8.3,7.5-13.7,9.8-16.1C319.3,200.4,319.6,197.1,315.7,194.9z M301.6,201.2
				c-1.2,3.7-8.1,4.9-8.1,4.9l1.9-13.4c0,0.2-0.1,0.1,0-1.3l3.7-4l2.9,4.4c0.7,1.7,1.8,3.2,3.2,4.2
				C303.5,197.5,302.2,199.5,301.6,201.2z"/>
			<path class="st13" d="M257.9,179.3c0,0,9.1,2.3,8.8,9.4c-0.3,7.1,0.6,29.5-10.8,26.7c-8.9-2.2-7.1-11.2-6.6-16.8"/>
			<path class="st13" d="M264.8,208.5c0,0,2.3,5.1,9.5,4.7c7.2-0.4,8.5-9.2,8.3-14.4c-0.3-5.2-0.3-15.2-9.3-18.9"/>
			<path class="st13" d="M281.3,207.9c0,0,1,3.7,5.8,3.9c4.8,0.3,6.4-5.8,6.4-5.8"/>
			<path class="st13" d="M285.3,181c0,0,10.3,3.9,10.1,10.3"/>
			<path class="st13" d="M282.1,240.5c0,0-5.9-2.2-7.4-4.2c0,0-12.7,3.6-17.7,1.3"/>
			<path class="st13" d="M277.6,212.3c0,0,2.6,6.5,0,12.5"/>
			<path class="st13" d="M305.2,195.9c0,0,5.1-3.5,10.5-1"/>
			<path class="st13" d="M299.2,187.4c0,0-1.3-3.6-1.4-5.8"/>
		</g>
		<path class="st4" d="M269.8,385.2c0,0,5.3-6.9,9.9-17.7"/>
		<path class="st4" d="M218.1,379.1c0,0,45.3,9.8,57-40"/>
		<circle class="st2" cx="485.6" cy="343.5" r="38.1"/>
		<g>
			<path class="st5" d="M400,202.5c2.4,2.4,8.1,7.8,9.8,16.1c1.7,8.3,11.5,23.9,25.3,21.9c0,0,6.6,35.1,8.6,56.9
				c2,21.9,0.5,66.4,39.3,73.9c0,0,28.1,4.4,39.3-29.5c11.2-33.9-34.6-91.9-37.3-112.2c-2.7-20.3-3.2-24.9-8.6-32.4
				c-5.4-7.5-2-16.9-12.9-18h-4.2c0,0-6.1-4.7-15.4,0.7c0,0-4.4-3.2-9.8,0l-2.2,1c-5.2-5.5-13-12.2-18.3-10.6
				c-8.6,2.5-7.5,15.3-11.9,18.3c0,0-3.4,3.1-0.2,6.2C397.7,197.1,397.9,200.4,400,202.5z M412,195.9c1.4-1,2.5-2.5,3.2-4.2l2.9-4.4
				l3.7,4c0.1,1.4,0.1,1.5,0,1.3l1.9,13.4c0,0-6.9-1.2-8.1-4.9C415.1,199.5,413.8,197.5,412,195.9z"/>
			<path class="st13" d="M459.3,179.3c0,0-9.1,2.3-8.8,9.4c0.3,7.1-0.6,29.5,10.8,26.7c8.9-2.2,7.1-11.2,6.6-16.8"/>
			<path class="st13" d="M452.4,208.5c0,0-2.3,5.1-9.5,4.7c-7.2-0.4-8.5-9.2-8.3-14.4c0.3-5.2,0.3-15.2,9.3-18.9"/>
			<path class="st13" d="M435.9,207.9c0,0-1,3.7-5.8,3.9c-4.8,0.3-6.4-5.8-6.4-5.8"/>
			<path class="st13" d="M431.9,181c0,0-10.3,3.9-10.1,10.3"/>
			<path class="st13" d="M435.1,240.5c0,0,5.9-2.2,7.4-4.2c0,0,12.7,3.6,17.7,1.3"/>
			<path class="st13" d="M439.6,212.3c0,0-2.6,6.5,0,12.5"/>
			<path class="st13" d="M412,195.9c0,0-5.1-3.5-10.5-1"/>
			<path class="st13" d="M418,187.4c0,0,1.3-3.6,1.4-5.8"/>
		</g>
		<path class="st4" d="M447.4,385.2c0,0-5.3-6.9-9.9-17.7"/>
		<path class="st4" d="M499.2,379.1c0,0-45.3,9.8-57-40"/>
		<line class="st13" x1="339.3" y1="248.9" x2="338.7" y2="253.7"/>
		<line class="st13" x1="382" y1="245.8" x2="382.3" y2="253.7"/>
		<rect x="269.8" y="389.2" class="st12" width="177.6" height="39.9"/>
		<g>
			<polyline class="st26" points="330.7,192.6 315.7,194.9 337,209.7 			"/>
			<polyline class="st26" points="387.3,192.6 402.3,194.9 381.1,209.7 			"/>
			<path class="st27" d="M328.8,191.8c4.6,16.6,11.9,31.1,31.2,31.1c19.7,0,26.6-14.4,31.2-31.1l-31.2-2.4L328.8,191.8z"/>
			<path class="st18" d="M384.9,191.3c-4.3,15.7-10.7,30-28,31.4c1,0.1,2,0.1,3,0.1c19.7,0,26.6-14.4,31.2-31.1L384.9,191.3z"/>
			<line class="st26" x1="339.3" y1="201.2" x2="383.7" y2="201.2"/>
			<line class="st26" x1="344.5" y1="211.2" x2="380.7" y2="211.2"/>
		</g>
	</g>
</g>
</svg>
