<?xml version="1.0" encoding="utf-8"?>
<!-- Generator: Adobe Illustrator 23.0.0, SVG Export Plug-In . SVG Version: 6.00 Build 0)  -->
<svg version="1.1" xmlns="http://www.w3.org/2000/svg" xmlns:xlink="http://www.w3.org/1999/xlink" x="0px" y="0px"
	 viewBox="0 0 750 500" style="enable-background:new 0 0 750 500;" xml:space="preserve">
<style type="text/css">
	.st0{fill:#F4B0A7;}
	.st1{fill:#FFD4CD;}
	.st2{fill:#1FBB55;}
	.st3{fill:#FEFEF4;}
	.st4{fill:#FCE7E4;}
	.st5{fill:none;stroke:#FEFEF4;stroke-width:1.9411;stroke-miterlimit:10;}
	.st6{fill:none;stroke:#FEFEF4;stroke-width:1.4768;stroke-miterlimit:10;}
	.st7{fill:none;stroke:#FEFEF4;stroke-width:4.522;stroke-miterlimit:10;}
	.st8{font-family:'Metropolis-Black';}
	.st9{font-size:58.1879px;}
	.st10{fill:none;stroke:#FEFEF4;stroke-width:1.4304;stroke-miterlimit:10;}
	.st11{fill:none;stroke:#000000;stroke-width:1.5516;stroke-miterlimit:10;}
	.st12{fill:#F26E5A;}
	.st13{fill:none;stroke:#DB5749;stroke-width:1.5;stroke-miterlimit:10;}
	.st14{fill:none;stroke:#FCE7E4;stroke-width:1.5516;stroke-miterlimit:10;}
	.st15{fill:#DB5749;}
	.st16{fill:none;stroke:#000000;stroke-width:1.2385;stroke-linecap:round;stroke-linejoin:round;stroke-miterlimit:10;}
</style>
<g id="BACKGROUND">
</g>
<g id="OBJECTS">
	<g>
		<g>
			<path class="st0" d="M203.8,173.5H89.3c-2.4,0-4.4-2-4.4-4.4l0,0c0-2.4,2-4.4,4.4-4.4h114.4c2.4,0,4.4,2,4.4,4.4l0,0
				C208.2,171.5,206.2,173.5,203.8,173.5z"/>
			<path class="st1" d="M414.6,55.3h-74.5c-2.5,0-4.5-2-4.5-4.5l0,0c0-2.5,2-4.5,4.5-4.5h74.5c2.5,0,4.5,2,4.5,4.5l0,0
				C419.1,53.2,417.1,55.3,414.6,55.3z"/>
			<path class="st2" d="M140.3,231.8h-13.2c-3.5,0-6.3-2.8-6.3-6.3v-12.3c0-3.5,2.8-6.3,6.3-6.3h13.2c3.5,0,6.3,2.8,6.3,6.3v12.3
				C146.5,229,143.7,231.8,140.3,231.8z"/>
			<path class="st0" d="M522.9,451.1h-7.2c-1.9,0-3.4-1.5-3.4-3.4V441c0-1.9,1.5-3.4,3.4-3.4h7.2c1.9,0,3.4,1.5,3.4,3.4v6.7
				C526.3,449.6,524.8,451.1,522.9,451.1z"/>
			<path class="st2" d="M651.6,163.4h-7.2c-1.9,0-3.4-1.5-3.4-3.4v-6.7c0-1.9,1.5-3.4,3.4-3.4h7.2c1.9,0,3.4,1.5,3.4,3.4v6.7
				C655.1,161.9,653.5,163.4,651.6,163.4z"/>
			<polygon class="st3" points="149.8,371.6 113.6,390.3 124,395.4 111.1,410.9 121.2,419.2 133.7,402.5 142.1,411.5 			"/>
			<path class="st1" d="M276,449.7h-42.3c-3.1,0-5.7-2.5-5.7-5.7l0,0c0-3.1,2.5-5.7,5.7-5.7H276c3.1,0,5.7,2.5,5.7,5.7l0,0
				C281.7,447.1,279.1,449.7,276,449.7z"/>
		</g>
		<g>
			<path class="st4" d="M547.7,409.4h-341c-3.9,0-7.2-3.2-7.2-7.2v-284c0-3.9,3.2-7.2,7.2-7.2h341c3.9,0,7.2,3.2,7.2,7.2v284
				C554.9,406.2,551.7,409.4,547.7,409.4z"/>
			<line class="st5" x1="199.6" y1="147" x2="554.9" y2="147"/>
			<path class="st5" d="M547.7,409.4h-341c-3.9,0-7.2-3.2-7.2-7.2v-284c0-3.9,3.2-7.2,7.2-7.2h341c3.9,0,7.2,3.2,7.2,7.2v284
				C554.9,406.2,551.7,409.4,547.7,409.4z"/>
			<g>
				<circle class="st5" cx="229.6" cy="129.4" r="5"/>
				<circle class="st5" cx="249.1" cy="129.4" r="5"/>
				<circle class="st5" cx="268.6" cy="129.4" r="5"/>
			</g>
		</g>
	</g>
	<g>
		<g>
			<path class="st1" d="M273.4,355.7H92.8c-5.7,0-10.4-4.6-10.4-10.4v-66.9c0-5.7,4.6-10.4,10.4-10.4h180.6
				c5.7,0,10.4,4.6,10.4,10.4v66.9C283.7,351,279.1,355.7,273.4,355.7z"/>
			<g>
				<path class="st6" d="M106.9,284.3c0,2.1-1.7,3.8-3.8,3.8c-2.1,0-3.8-1.7-3.8-3.8c0-2.1,1.7-3.8,3.8-3.8
					C105.1,280.5,106.9,282.2,106.9,284.3z"/>
				<circle class="st6" cx="117.9" cy="284.3" r="3.8"/>
				<circle class="st6" cx="132.7" cy="284.3" r="3.8"/>
			</g>
			<line class="st6" x1="82.4" y1="298.7" x2="283.7" y2="298.7"/>
		</g>
		<g>
			<path class="st1" d="M597.8,156.8h-81c-6.8,0-12.2-5.5-12.2-12.2V79.2c0-6.8,5.5-12.2,12.2-12.2h81c6.8,0,12.2,5.5,12.2,12.2
				v65.3C610.1,151.3,604.6,156.8,597.8,156.8z"/>
			<g>
				<path class="st3" d="M550.7,122.1c-10.1,0-18.2-8.2-18.2-18.2c0-10.1,8.2-18.2,18.2-18.2c10.1,0,18.2,8.2,18.2,18.2
					C568.9,113.9,560.7,122.1,550.7,122.1z M550.7,89.8c-7.8,0-14.1,6.3-14.1,14.1c0,7.8,6.3,14.1,14.1,14.1
					c7.8,0,14.1-6.3,14.1-14.1C564.8,96.1,558.5,89.8,550.7,89.8z"/>

					<rect x="562.7" y="114.2" transform="matrix(0.7071 -0.7071 0.7071 0.7071 81.9675 433.9277)" class="st3" width="4.1" height="7.6"/>
				<path class="st3" d="M571.7,118.5l10.6,10.6c1.1,1.1,1.1,3,0,4.1l-2.4,2.4c-1.1,1.1-3,1.1-4.1,0l-10.6-10.6
					c-1.1-1.1-1.1-3,0-4.1l2.4-2.4C568.7,117.4,570.6,117.4,571.7,118.5z"/>
			</g>
		</g>
		<g>
			<path class="st2" d="M168.7,128.6h-46.6c-7.8,0-14.1-6.3-14.1-14.1V75c0-7.8,6.3-14.1,14.1-14.1h46.6c7.8,0,14.1,6.3,14.1,14.1
				v39.5C182.8,122.3,176.5,128.6,168.7,128.6z"/>
			<g>
				<path class="st3" d="M145.4,109.4c-8.7,0-15.8-7.1-15.8-15.8c0-8.7,7.1-15.8,15.8-15.8s15.8,7.1,15.8,15.8
					C161.2,102.3,154.1,109.4,145.4,109.4z M145.4,82.4c-6.1,0-11.1,5-11.1,11.1c0,6.1,5,11.1,11.1,11.1c6.1,0,11.1-5,11.1-11.1
					C156.5,87.4,151.5,82.4,145.4,82.4z"/>
				<line class="st7" x1="154.7" y1="82.4" x2="136.6" y2="104.6"/>
			</g>
		</g>
		<g>
			<path class="st2" d="M667.7,367H499c-7.2,0-13-5.8-13-13V228.1c0-7.2,5.8-13,13-13h168.6c7.2,0,13,5.8,13,13v125.8
				C680.7,361.1,674.9,367,667.7,367z"/>
			<text transform="matrix(1 0 0 1 500.1516 317.379)" class="st3 st8 st9">ERRO</text>
			<g>
				<circle class="st10" cx="505" cy="229.4" r="3.7"/>
				<circle class="st10" cx="519.3" cy="229.4" r="3.7"/>
				<circle class="st10" cx="533.7" cy="229.4" r="3.7"/>
			</g>
			<line class="st10" x1="484.8" y1="244.8" x2="679.6" y2="244.8"/>
		</g>
	</g>
	<g>
		<g>
			<path class="st2" d="M395.8,303.4l-0.7-10l-62.5,3.1v9.7c0,0-14.1,13.4-19.6,102.4h112.6C425.5,408.5,437.8,329.7,395.8,303.4z"
				/>
			<g>
				<line class="st11" x1="332.5" y1="306.1" x2="395.8" y2="303.4"/>
				<polyline class="st11" points="345.5,347.1 358.4,352.4 365.4,408.5 				"/>
			</g>
		</g>
		<g>
			<g>
				<g>
					<path class="st12" d="M264.1,284l17.3-57l38,14.2l-18.2,54.6c-3.7,11.3-16.6,16.6-27.2,11.2C265.5,302.8,261.4,293,264.1,284z"
						/>
					<path class="st3" d="M290.8,196.5c3.4-11.1,15.4-17.2,26.4-13.4c10.7,3.7,16.5,15.3,12.9,26l-10.6,32.2l-38-14.2L290.8,196.5z"
						/>
				</g>
				<g>
					<path class="st12" d="M293.5,279.7l-43.4-82.3c0,0,1-14.9-23.7-15.8l0,0c-0.3,0-0.7,0-1,0h-8.3c-1.5,0-2.9,1.1-3.1,2.6
						c-0.2,1.8,1,3.3,2.6,3.5l8.3,1.2l-11.3,3l-2.1,0.8l-15.4-10.2c-1.2-0.9-2.9-0.5-3.7,0.9c-0.6,1-0.3,2.3,0.6,3.1
						c1,0.8,2.5,2.1,4.2,3.6l-3.4-2c-1.3-0.8-3-0.2-3.6,1.1c-0.5,1.1-0.1,2.4,0.8,3c0.8,0.6,1.9,1.3,3,2.1l-1.2-0.5
						c-1.3-0.5-2.8-0.1-3.6,1c-1.1,1.6-0.4,3.7,1.3,4.4l16.9,7.1c2.9,1.2,5.7,2,9.1,1.2l15-3.5l33.6,94.1L293.5,279.7z"/>
					<line class="st13" x1="275.7" y1="245.9" x2="283.7" y2="261.1"/>
				</g>
			</g>
			<g>
				<path class="st3" d="M324.6,182.1l-16.1,1.2c0,0-23.4,31.7,24.1,113.1l62.5-3.1l4.7-87.7l-7.7-24.9h-28L324.6,182.1z"/>
				<path class="st14" d="M306.3,236.3c0,0-4.7-9.8-1.7-31.5"/>
			</g>
			<g>
				<g>
					<path class="st12" d="M451.5,272.5l-26-53.6l-35.3,20l26.5,51.1c5.5,10.6,19,13.8,28.7,6.9C453.1,291.3,455.6,281,451.5,272.5z
						"/>
					<g>
						<path class="st3" d="M411.5,190.3c-5.1-10.4-17.9-14.6-28.1-9.2c-10,5.3-13.9,17.6-8.7,27.7l15.5,30.1l35.3-20L411.5,190.3z"
							/>
						<line class="st14" x1="390.2" y1="238.9" x2="377.3" y2="214"/>
					</g>
				</g>
				<g>
					<path class="st12" d="M505.7,180.8c-0.8-1.1-2.3-1.5-3.6-1l-7.5,2.9l7.1-6c1.2-1,1.5-2.7,0.6-4c-1-1.4-3-1.7-4.3-0.6l-6.6,5.3
						l5.6-7.3c0.9-1.2,0.9-3-0.3-4c-1.3-1.2-3.3-1-4.3,0.3l-11.1,11.5l-11.3-3l8.3-1.2c1.7-0.2,2.9-1.7,2.6-3.5
						c-0.2-1.5-1.6-2.6-3.1-2.6h-8.3c-4.9,0-9.6,1.7-13.2,4.9c-0.1,0-0.1,0.1-0.2,0.1c-5.1,4-3.2,12.2-3.2,12.2l-31.1,88.1
						l30.8,13.7l17.8-94.6l11.4,0c0.7,0.1,1.4,0.1,2.1,0l0.1,0l0,0c1.2-0.1,2.4-0.4,3.6-0.9l16.9-6
						C506.1,184.4,506.8,182.3,505.7,180.8z"/>
					<line class="st13" x1="433.9" y1="236.3" x2="427.2" y2="259.7"/>
				</g>
			</g>
		</g>
		<g>
			<path d="M323.3,109.5c-1.9,1.3-15,4.7-15.2,7.1c0,0,4.3,16.8-0.1,19.9c-11.9,8.5-15.7,25-15.7,25s31.3,23.5,114.6-1.2
				c0,0,1-10-14.2-17.2c-4.3-2.1-8.2-5.2-10.6-9.4c-1.9-3.3-2.2-4.7-2.7-7.6C378.1,117.9,355.4,87.4,323.3,109.5z"/>
			<path class="st15" d="M324.6,134.6c0.4,5.5-3.8,10.3-9.3,10.7c-5.5,0.4-10.3-3.8-10.7-9.3c-0.4-5.5,3.8-10.3,9.3-10.7
				C319.4,124.9,324.2,129.1,324.6,134.6z"/>
			<path class="st12" d="M329.1,159.1l1.4,21.7c0.5,7.6,3.6,12.8,11.1,12.3l0,0c6.4-0.4,14-5.6,14.4-12l-3.8-34.1L329.1,159.1z"/>
			<path class="st12" d="M324.6,182.1l39.4-1.4c0,0-1,19.4-24.4,17.6C323.3,197.1,324.6,182.1,324.6,182.1z"/>
			<polygon class="st15" points="330.2,177 355.4,152.3 328.9,156.8 			"/>
			<path class="st12" d="M335.7,162.6L335.7,162.6c-12.8,0-23.4-10.1-23.8-20.6l-0.8-24.7c-0.5-13.1,9.5-24.3,22.7-25.2l0,0
				c13.4-0.9,27.4,9,28.4,22.5l0.4,19.9C362.8,149.8,351,161.5,335.7,162.6z"/>
			<g>
				<polyline class="st16" points="325.3,133.3 324.6,139.5 327.8,139.6 				"/>
				<path d="M338,118.3c0,0-7.1-0.6-7.2,2.3c0,0,0,2,6.2,2.3c6.2,0.4,7.8-0.1,8.4-1.9C346,119.2,341.3,118.3,338,118.3z"/>
				<path d="M317.5,122.5c0,0,5.4-0.4,5.9,2.2c0,0,0.3,1.8-4.4,2c-4.7,0.3-6.2-0.3-6.2-1.8C312.6,123.2,314.9,122.5,317.5,122.5z"/>
				<path d="M320.6,131c0,1.3-0.9,2.3-2.2,2.3c-1.3,0-2.3-0.9-2.3-2.2c0-1.3,0.9-2.3,2.2-2.3C319.5,128.7,320.5,129.7,320.6,131z"/>
				<path d="M339.6,130.4c0,1.3-0.9,2.3-2.2,2.3c-1.3,0-2.3-0.9-2.3-2.2c0-1.3,0.9-2.3,2.2-2.3C338.5,128.1,339.6,129.1,339.6,130.4
					z"/>
				<path class="st16" d="M333,143.8c0,0-3.4-1.5-7.4,2"/>
			</g>
			<path d="M341.7,87.8c-3.2-0.2-6.4,0.2-9.5,1c-7.7,2-21.5,7.7-23.9,22.5c-0.8,3.9-0.2,5.2-0.2,5.2s25.8,1,41-6.2
				c2.2,9.3,4.2,15,13.4,24.1l8.1-12.2l9.2,8.2C379.9,130.7,379.9,89.9,341.7,87.8z"/>
			<g>
				<path class="st12" d="M375.9,134.7c0.4,5.5-3.8,10.3-9.3,10.7c-5.5,0.4-10.3-3.8-10.7-9.3c-0.4-5.5,3.8-10.3,9.3-10.7
					C370.7,125,375.5,129.2,375.9,134.7z"/>
				<path class="st16" d="M362.1,138.2c0,0-0.5-7.2,6.5-6.6"/>
			</g>
		</g>
	</g>
</g>
<g id="DESIGNED_BY_FREEPIK">
</g>
</svg>
