<svg xmlns="http://www.w3.org/2000/svg" xmlns:xlink="http://www.w3.org/1999/xlink" viewBox="0 0 35.83 35.83">
    <!-- <defs>
        <linearGradient id="degrade_color" x1="1.07" y1="32.25" x2="52.78" y2="-11.77" gradientUnits="userSpaceOnUse">
            <stop offset="0" stop-color="#fbe18a"/>
            <stop offset="0.21" stop-color="#fcbb45"/>
            <stop offset="0.38" stop-color="#f75274"/>
            <stop offset="0.52" stop-color="#d53692"/>
            <stop offset="0.74" stop-color="#8f39ce"/>
            <stop offset="1" stop-color="#5b4fe9"/>
        </linearGradient>
    </defs>
    fill="url(#degrade_color)" -->

    <g id="instagram_2" data-name="Camada 2">
        <g id="instagram">
            <path d="M27.34,6.6a2.11,2.11,0,1,0,2.11,2.1A2.11,2.11,0,0,0,27.34,6.6ZM18,9.3a8.85,8.85,0,1,0,8.85,8.85A8.86,8.86,0,0,0,18,9.3Zm0,14.51a5.67,5.67,0,1,1,5.67-5.66A5.67,5.67,0,0,1,18,23.81Zm17.86-13A10.79,10.79,0,0,0,25,0H10.79A10.79,10.79,0,0,0,0,10.79V25A10.79,10.79,0,0,0,10.79,35.83H25A10.79,10.79,0,0,0,35.83,25ZM32.45,25A7.41,7.41,0,0,1,25,32.45H10.79A7.41,7.41,0,0,1,3.38,25V10.79a7.41,7.41,0,0,1,7.41-7.41H25a7.41,7.41,0,0,1,7.41,7.41Z" fill="#FFF"/>
        </g>
    </g>
</svg>