<svg xmlns="http://www.w3.org/2000/svg" viewBox="0 0 33.4 27.51">
    <g id="twitter_2" data-name="Camada 2">imgs
        <g id="twitter">
            <path d="M33.27,3.3a13.66,13.66,0,0,1-3.37,1c.54-.09,1.34-1.07,1.66-1.47a6,6,0,0,0,1.12-2c0-.06.06-.13,0-.17a.19.19,0,0,0-.18,0,16.94,16.94,0,0,1-4,1.53A.26.26,0,0,1,28.22,2c-.12-.13-.23-.25-.35-.36A7.5,7.5,0,0,0,25.92.49,6.83,6.83,0,0,0,23,0a7.36,7.36,0,0,0-2.83.8,7.58,7.58,0,0,0-2.28,1.86A7.16,7.16,0,0,0,16.48,5.4a7.54,7.54,0,0,0-.07,2.88c0,.16,0,.18-.14.16-5.5-.82-10.06-2.79-13.77-7-.16-.19-.24-.19-.38,0C.5,3.87,1.29,7.77,3.31,9.69c.27.26.55.51.85.75A7.15,7.15,0,0,1,1.5,9.69c-.16-.1-.24,0-.25.14a4.31,4.31,0,0,0,0,.79,7.07,7.07,0,0,0,4.35,5.63,4.57,4.57,0,0,0,.89.27,8.1,8.1,0,0,1-2.61.08c-.19,0-.26.06-.19.24C4.88,20,7.35,20.89,9.21,21.42c.24,0,.49,0,.74.11,0,0,0,0,0,0-.62.94-2.75,1.64-3.74,2a13.39,13.39,0,0,1-5.68.73c-.31-.05-.37,0-.45,0s0,.12.08.2a13.2,13.2,0,0,0,1.19.7A18,18,0,0,0,5.1,26.7c6.83,1.89,14.51.5,19.63-4.59,4-4,5.43-9.51,5.43-15,0-.22.26-.34.41-.45a13.24,13.24,0,0,0,2.66-2.78.8.8,0,0,0,.17-.53v0C33.4,3.21,33.41,3.24,33.27,3.3Z" fill="#FFF"/>
        </g>
    </g>
</svg>