<svg xmlns="http://www.w3.org/2000/svg" viewBox="0 0 634.8 423.2">
    <style type="text/css">
        .st0{fill:#FFFFFF;}
        .st1{fill:#1FBB55;}
        .st2{fill:#363636;}
    </style>

    <g id="OBJECTS">
        <g>
            <g>
                <g>
                    <path class="st0" d="M529.8,379.2l-445.2-0.7c-11.4,0-20.6-7.1-20.5-15.8L64.4,97l0-29.9c0-8.7,9.2-15.8,20.6-15.8L530.3,52 c11.4,0,20.6,7.1,20.5,15.8l-0.5,295.6C550.4,372.2,541.2,379.2,529.8,379.2z"/>
                    <path class="st1" d="M64.4,113.6l0.1-46.5c0-8.7,9.2-15.8,20.6-15.8L530.3,52c11.4,0,20.6,7.1,20.5,15.8l-0.1,44.4"/>
                    <path class="st0" d="M99.6,93.8C99.6,93.8,99.6,93.8,99.6,93.8c-5.3,0-9.6-4.3-9.6-9.6c0-5.3,4.3-9.6,9.6-9.6c0,0,0,0,0,0 c5.3,0,9.6,4.3,9.6,9.6c0,2.6-1,5-2.8,6.8C104.5,92.8,102.1,93.8,99.6,93.8z M99.6,78.5c-3.1,0-5.7,2.5-5.7,5.7 c0,3.1,2.5,5.7,5.7,5.7c0,0,0,0,0,0c1.5,0,2.9-0.6,4-1.7c1.1-1.1,1.7-2.5,1.7-4C105.2,81,102.7,78.5,99.6,78.5 C99.6,78.5,99.6,78.5,99.6,78.5z"/>
                    <path class="st0" d="M128.2,93.8C128.2,93.8,128.2,93.8,128.2,93.8c-5.3,0-9.6-4.3-9.6-9.6c0-5.3,4.3-9.6,9.6-9.6c0,0,0,0,0,0 c5.3,0,9.6,4.3,9.6,9.6v0C137.9,89.5,133.5,93.8,128.2,93.8z M128.2,78.5c-3.1,0-5.7,2.5-5.7,5.7c0,3.1,2.5,5.7,5.7,5.7 c0,0,0,0,0,0c3.1,0,5.7-2.5,5.7-5.7C133.9,81.1,131.4,78.5,128.2,78.5C128.2,78.5,128.2,78.5,128.2,78.5z"/>
                    <path class="st0" d="M156.4,93.9C156.4,93.9,156.4,93.9,156.4,93.9c-5.3,0-9.6-4.3-9.6-9.6c0-5.3,4.3-9.6,9.6-9.6 c2.6,0,5,1,6.8,2.8c1.8,1.8,2.8,4.2,2.8,6.8l-2,0l2,0C166,89.6,161.7,93.9,156.4,93.9z M156.4,78.6c-3.1,0-5.7,2.5-5.7,5.7 c0,3.1,2.5,5.7,5.7,5.7c0,0,0,0,0,0c3.1,0,5.7-2.5,5.7-5.7c0-1.5-0.6-2.9-1.7-4C159.3,79.2,157.9,78.6,156.4,78.6 C156.4,78.6,156.4,78.6,156.4,78.6z"/>
                    <path class="st2" d="M483.4,171.8L483.4,171.8l-355.4-0.4c-2,0-3.6-1.3-3.6-2.9c0-1.6,1.6-2.8,3.6-2.8h0l355.4,0.4 c2,0,3.6,1.3,3.6,2.9C487,170.5,485.3,171.8,483.4,171.8z"/>
                    <path class="st2" d="M305.4,294.9L305.4,294.9l-177.7-0.2c-2,0-3.6-1.3-3.6-2.9c0-1.6,1.6-2.8,3.6-2.8h0l177.7,0.2 c2,0,3.6,1.3,3.6,2.9C309,293.6,307.4,294.9,305.4,294.9z"/>
                    <path class="st2" d="M231.1,208.5L231.1,208.5l-103.3-0.2c-2,0-3.6-1.3-3.6-2.9c0-1.6,1.6-2.8,3.6-2.8h0l103.3,0.2 c2,0,3.6,1.3,3.6,2.9C234.7,207.2,233.1,208.5,231.1,208.5z"/>
                    <path class="st2" d="M483.2,208.8L483.2,208.8L256,208.6c-2,0-3.6-1.3-3.6-2.9c0-1.6,1.6-2.9,3.6-2.9l0,0l227.2,0.2 c2,0,3.6,1.3,3.6,2.9C486.8,207.5,485.2,208.8,483.2,208.8z"/>
                    <path class="st2" d="M328.7,252.3C328.7,252.3,328.7,252.3,328.7,252.3l-200.9-0.2c-2,0-3.6-1.3-3.6-2.9c0-1.6,1.6-2.8,3.6-2.8 c0,0,0,0,0,0l200.9,0.2c2,0,3.6,1.3,3.6,2.9C332.3,251,330.7,252.3,328.7,252.3z"/>
                    <path class="st2" d="M483.2,252.5L483.2,252.5l-132.7-0.2c-2,0-3.6-1.3-3.6-2.9c0-1.6,1.6-2.8,3.6-2.8h0l132.7,0.2 c2,0,3.6,1.3,3.6,2.9C486.8,251.3,485.2,252.5,483.2,252.5z"/>
                </g>
            </g>
        </g>
    </g>
</svg>
