<svg xmlns="http://www.w3.org/2000/svg" viewBox="0 0 352.9 225">
    <g>
        <path fill="#89D76F" d="M127.57,189.71c-25.82,0-51.64,0-78.16,0c1.24-1.36,2.08-2.34,2.99-3.26c28.63-28.76,57.26-57.52,85.92-86.26 c21.09-21.16,42.22-42.29,63.33-63.42c0.53-0.53,1.12-0.98,1.68-1.47c0.44,0.01,0.87,0.02,1.31,0.03c0.04,22.7,0.07,45.4,0.11,68.1 c0,2.62,0.03,5.24,0.04,7.86c0,0.38-0.01,0.75-0.01,1.13c-1.64,0.25-2.49,1.6-3.53,2.64c-8.72,8.76-17.38,17.57-26,26.44 c-14.8,15.23-29.98,30.09-44.98,45.13C129.3,187.6,128.46,188.69,127.57,189.71z"/>
        <path fill="#4BC776" d="M204.77,112.44c0-0.38,0.01-0.76,0.01-1.13c9.41-9.3,18.85-18.57,28.22-27.91 c15.57-15.53,31.08-31.12,46.64-46.66c0.74-0.74,1.26-1.89,2.64-1.91c0.73,1.15,0.35,2.42,0.35,3.61 c0.02,49.1-0.03,98.21,0.08,147.31c0.01,3.28-0.76,4.16-4.1,4.14c-24.61-0.2-49.22-0.17-73.83-0.21 C204.78,163.93,204.77,138.18,204.77,112.44z"/>
        <path fill="#34BF5A" d="M204.77,112.44c0,25.75,0.01,51.49,0.01,77.24c-25.74,0.01-51.47,0.03-77.21,0.04 c0.9-1.03,1.73-2.11,2.69-3.07c15.01-15.03,30.18-29.9,44.98-45.13c8.62-8.86,17.28-17.67,26-26.44 C202.28,114.04,203.13,112.69,204.77,112.44z"/>
        <path fill="#9FDE89" d="M204.63,35.34c-0.44-0.01-0.87-0.02-1.31-0.03C203.77,34.71,204.23,33.94,204.63,35.34z"/>
    </g>
</svg>
